<?xml version="1.0" encoding="UTF-8" standalone="no"?>
<!-- Created with Inkscape (http://www.inkscape.org/) -->

<svg
   xmlns:dc="http://purl.org/dc/elements/1.1/"
   xmlns:cc="http://creativecommons.org/ns#"
   xmlns:rdf="http://www.w3.org/1999/02/22-rdf-syntax-ns#"
   xmlns:svg="http://www.w3.org/2000/svg"
   xmlns="http://www.w3.org/2000/svg"
   xmlns:sodipodi="http://sodipodi.sourceforge.net/DTD/sodipodi-0.dtd"
   xmlns:inkscape="http://www.inkscape.org/namespaces/inkscape"
   width="210mm"
   height="297mm"
   viewBox="0 0 210 297"
   version="1.1"
   id="svg8"
   inkscape:version="0.92.3 (2405546, 2018-03-11)"
   sodipodi:docname="shed.svg">
  <defs
     id="defs2" />
  <sodipodi:namedview
     id="base"
     pagecolor="#ffffff"
     bordercolor="#666666"
     borderopacity="1.0"
     inkscape:pageopacity="0.0"
     inkscape:pageshadow="2"
     inkscape:zoom="0.35"
     inkscape:cx="442.55719"
     inkscape:cy="696.76123"
     inkscape:document-units="mm"
     inkscape:current-layer="layer1"
     showgrid="false"
     objecttolerance="5"
     inkscape:window-width="1861"
     inkscape:window-height="1028"
     inkscape:window-x="59"
     inkscape:window-y="24"
     inkscape:window-maximized="1" />
  <metadata
     id="metadata5">
    <rdf:RDF>
      <cc:Work
         rdf:about="">
        <dc:format>image/svg+xml</dc:format>
        <dc:type
           rdf:resource="http://purl.org/dc/dcmitype/StillImage" />
        <dc:title></dc:title>
      </cc:Work>
    </rdf:RDF>
  </metadata>
  <g
     inkscape:label="Layer 1"
     inkscape:groupmode="layer"
     id="layer1">
    <path
       style="fill:#73706f;stroke-width:0.35277775"
       d="m 122.18239,42.571678 3.51545,2.55117 -3.28157,1.67451 -1.19829,-0.0383 0.19872,-3.36939 z"
       id="path950-8-6"
       inkscape:connector-curvature="0"
       sodipodi:nodetypes="cccccc" />
    <path
       style="fill:#73706f;stroke-width:0.35277775"
       d="m 112.72807,40.409108 -0.35451,-0.1449 -3.85078,0.98902 -0.35782,0.93244 -0.13634,0.4157 0.94494,1.51191 2.21434,1.55475 0.58519,-0.36167 z"
       id="path950-8"
       inkscape:connector-curvature="0"
       sodipodi:nodetypes="ccccccccc" />
    <path
       style="fill:#56692e;stroke-width:0.35277775"
       d="m 89.634413,240.37347 -69.49722,-0.19144 -1.6757,-0.45667 -1.67569,-0.45667 v -0.35079 -0.3508 l 0.97014,0.064 0.97014,0.064 1.05833,-0.0515 1.05833,-0.0515 -1.05833,-0.56632 -1.05833,-0.56632 -0.21583,-0.33163 -0.21583,-0.33163 -0.22515,0.0301 -0.22514,0.0301 h -0.35277 -0.35278 v -0.48598 -0.48597 l -0.48507,-0.40257 -0.48507,-0.40257 v -0.87534 -0.87535 h 0.30868 0.30868 v 0.46282 0.46282 l 0.97014,0.69176 0.97014,0.69176 0.79375,-0.12078 0.79375,-0.12079 v -0.30742 -0.30742 l -0.35278,-0.21803 -0.35278,-0.21803 v -0.33196 -0.33195 h 1.41111 1.41111 v -0.45862 -0.45861 l -0.39168,-0.39168 -0.39168,-0.39168 1.00904,-0.57895 1.00905,-0.57896 -1.47707,0.15798 -1.47706,0.15797 -0.21335,-0.21335 -0.21335,-0.21336 1.51402,-0.79248 1.51403,-0.79249 -2.00765,-0.0159 -2.00766,-0.0159 -0.25376,-0.44098 -0.25377,-0.44097 0.28868,0.26152 0.28869,0.26153 0.43629,-0.3621 0.4363,-0.36209 0.30172,0.0838 0.30171,0.0838 1.33482,-0.26604 1.33481,-0.26603 -1.24662,-1.45639 -1.24662,-1.4564 v -1.17122 -1.17122 h 0.35278 0.35278 v 0.44879 0.44878 l 1.08402,1.31511 1.08401,1.3151 h 0.71714 0.71714 l 1.04814,-0.88195 1.04813,-0.88194 h -1.43818 -1.43818 v -0.37219 -0.3722 l 1.85208,-0.80472 1.85209,-0.80472 0.70555,-0.28879 0.70556,-0.2888 -0.52917,-0.0983 -0.52917,-0.0983 -1.41111,-0.25295 -1.41111,-0.25294 1.23473,-0.28242 1.23472,-0.28241 1.14652,0.30704 1.14653,0.30705 v -0.39929 -0.39928 l -0.97014,-0.80898 -0.97014,-0.80899 1.50172,0.15904 1.50171,0.15904 0.41032,0.25359 0.41032,0.25359 -0.27636,-0.67523 -0.27637,-0.67523 -0.19882,-0.69886 -0.19882,-0.69886 0.93199,0.61067 0.93199,0.61066 h 0.16702 0.16703 l -0.0664,-0.97014 -0.0664,-0.97014 0.70555,0.0377 0.70556,0.0377 0.48507,0.13867 0.48507,0.13867 0.1551,-0.42123 0.15511,-0.42123 -1.43392,-0.38612 -1.43393,-0.38612 v -0.21519 -0.21518 l 3.02689,0.21361 3.02689,0.21361 -0.91022,-0.71599 -0.91023,-0.71598 v -0.36202 -0.36202 l 1.25489,0.7404 1.25488,0.7404 h 0.16529 0.16528 l -0.5589,-1.08079 -0.5589,-1.0808 0.10887,-1.12407 0.10887,-1.12406 1.14636,2.02284 1.14637,2.02285 1.21279,-0.57835 1.21279,-0.57833 -0.94805,-0.71114 -0.94804,-0.71113 -0.32223,-0.27949 -0.32223,-0.27949 0.98712,0.179 0.98711,0.179 0.99329,0.51365 0.99329,0.51365 h 0.16363 0.16362 l -1.02805,-2.12233 -1.02805,-2.12229 v -0.36797 -0.36798 l 0.36074,0.22295 0.36074,0.22295 1.22676,1.82163 1.22676,1.82163 v -2.32186 -2.32186 l 0.70555,-0.63852 0.70556,-0.63852 v 1.2453 1.2453 l 0.22048,1.10243 0.22049,1.10243 1.45521,-0.002 1.45521,-0.002 -1.05834,-0.7282 -1.05833,-0.72819 1.16869,0.23425 c 1.55052,0.36847 1.18184,0.30439 0.91515,-1.11718 l 2.10882,-0.26475 c 0.20629,6.12338 0.75595,2.4096 -1.49205,9.3222 16.33341,1.84426 45.37771,5.2676 65.515577,8.50526 14.88733,-5.24682 20.45179,-6.78144 33.3238,-10.13866 0,0 -0.99308,-4.1438 -0.75215,-7.1877 l 2.619,-0.56312 1.01538,-0.83039 0.28836,-0.0127 0.28835,-0.0127 -0.24857,0.79375 -0.24857,0.79375 -0.18599,0.49378 c -0.40617,0.7623 0.20514,0.39561 0.75397,0.25786 l 0.93995,-0.23591 v 0.23241 0.23241 l -0.61736,0.46864 -0.61736,0.46865 1.28177,0.0112 1.28177,0.0112 0.21272,-0.79375 0.21271,-0.79375 0.005,-1.55399 0.005,-1.55398 0.70556,0.63852 0.70556,0.63852 v 2.06199 2.06199 h 0.35277 0.35278 v -0.30205 -0.30205 l 1.26934,-1.6624 1.26935,-1.66241 0.18316,0.18317 0.18316,0.18316 -1.08119,2.31046 -1.08119,2.31045 h 0.34557 0.34557 l 1.26648,-0.52916 1.26647,-0.52917 0.39789,0.009 0.39789,0.009 -1.19081,0.9877 -1.19081,0.9877 1.08132,0.4479 1.08133,0.4479 0.31928,-0.19732 0.31927,-0.19733 0.84854,-1.79518 0.84855,-1.79518 0.19681,0.98838 0.19681,0.9884 -0.62935,1.21376 -0.62935,1.21376 0.10383,0.10382 0.10382,0.10382 1.36299,-0.69509 1.36298,-0.69489 0.20045,0.20268 0.20046,0.20267 -1.0272,0.82088 -1.02719,0.82087 2.93355,-0.20107 2.93355,-0.20107 -0.25148,0.40691 -0.25148,0.40691 h -0.65589 -0.65588 l -0.55802,0.21413 -0.55802,0.21413 v 0.3303 0.33031 l 1.32292,-0.10347 1.32291,-0.10346 -0.0139,0.97014 -0.0139,0.97014 0.1903,-0.0112 0.19029,-0.0112 0.66934,-0.50664 0.66933,-0.50665 0.31998,0.19775 0.31997,0.19776 -0.57652,0.87989 -0.57653,0.87988 0.17437,0.17436 0.17436,0.17437 0.71258,-0.38136 0.71257,-0.38136 h 0.89407 0.89406 l -0.19791,0.51573 -0.1979,0.51574 -0.67297,0.21359 -0.67296,0.2136 v 0.33414 0.33414 l 1.93293,-0.15972 1.93293,-0.15973 0.18171,0.29401 0.18171,0.29401 -0.55599,0.21336 -0.556,0.21335 h -0.85309 -0.85309 v 0.35278 0.35278 h 0.37557 0.37558 l 1.74109,0.74899 1.74109,0.749 v 0.48572 0.48573 l -0.26458,-0.0418 -0.26458,-0.0418 -0.85525,0.0418 -0.85526,0.0418 0.82855,0.88194 0.82854,0.88195 h 0.74183 0.74183 l 1.11662,-1.01988 1.11662,-1.01987 -0.21485,-0.21485 -0.21485,-0.21485 h 0.41157 0.41158 l -0.0882,-0.39687 -0.0882,-0.39688 0.44097,-0.16169 0.44097,-0.16169 v 0.75815 0.75814 l -0.41072,0.76745 -0.41073,0.76745 -1.03927,1.03927 -1.03927,1.03927 0.79862,0.29543 0.79863,0.29543 1.06523,0.0864 1.06524,0.0864 0.15429,0.46289 0.1543,0.46289 -0.65635,-0.0694 -0.65636,-0.0694 -1.20532,0.0406 -1.20532,0.0406 0.26458,0.26458 0.26458,0.26458 0.23519,0.0174 0.23518,0.0173 0.79375,0.27101 0.79375,0.27102 v 0.48322 0.48321 l -1.32292,-0.17961 -1.32291,-0.17961 0.76188,0.6735 0.76188,0.67351 -0.31551,0.49842 -0.3155,0.49843 -0.005,0.26458 -0.005,0.26459 h 1.35232 1.35231 l 0.2297,0.2297 0.2297,0.2297 -0.58725,0.42942 -0.58727,0.42941 0.75375,0.40339 0.75374,0.40339 1.16192,-0.70841 1.16192,-0.70841 0.23407,-0.001 0.23407,-0.001 -0.25709,0.97014 -0.2571,0.97014 -1.6202,0.77491 -1.62022,0.77491 -0.22967,0.37162 -0.22967,0.37161 0.63818,0.0374 0.63818,0.0374 0.93516,-0.0603 0.93515,-0.0603 0.23219,0.3757 0.2322,0.3757 -0.28541,0.045 -0.2854,0.045 -0.88194,0.13257 -0.88195,0.13258 -2.02847,0.0792 -2.02847,0.0792 v 0.44873 0.44873 l -11.90625,-0.086 -11.90625,-0.086 -69.497217,-0.19144 z"
       id="path1221"
       inkscape:connector-curvature="0"
       sodipodi:nodetypes="cccccccccccccccccccccccccccccccccccccccccccccccccccccccccccccccccccccccccccccccccccccccccccccccccccccccccccccccccccccccccccccccccccccccccccccccccccccccccccccccccccccccccccccccccccccccccccccccccccccccccccccccccccccccccccccccccccccccccccccccccccccccccccccccccccccccccccccccccccccccccccccccccccccccccccccccccccccccccccccccccccccccccccccccccccccccccccccccccccccccccccccccccccc" />
    <path
       style="fill:#ccaa85;stroke-width:0.35277775"
       d="m 84.690193,72.122508 2.47317,-0.13979 30.831787,48.055642 -2.35827,100.99306 -59.669107,-8.20527 0.3742,-95.9129 c 7.45334,-11.89402 14.22983,-22.955512 28.34822,-44.790742 z"
       id="path1095"
       inkscape:connector-curvature="0"
       sodipodi:nodetypes="ccccccc" />
    <path
       style="fill:#a3a19e;stroke-width:0.35277775"
       d="m 39.477673,118.26671 c 16.49233,-21.796002 25.59167,-46.640042 43.75794,-66.921492 h 0.63685 c 10.88537,19.18908 25.179287,43.42123 39.189457,63.999112 -0.021,0.73561 -0.021,0.73561 -2.70459,3.84007 C 95.231313,89.004378 82.775723,57.934728 82.775723,57.934728 c 0,0 -28.52958,47.675842 -41.11046,63.306632 -1.52118,-1.59649 -2.18759,-2.97465 -2.18759,-2.97465 z"
       id="path988"
       inkscape:connector-curvature="0"
       sodipodi:nodetypes="cccccccc" />
    <path
       style="fill:#a3a19e;stroke-width:0.35277775"
       d="m 124.2967,116.63671 c 9.20115,-0.20571 30.76535,-6.11121 37.18399,-2.14427 0.31995,1.34311 0,0 -0.96227,2.28859 -13.05194,3.07259 -29.16375,2.59281 -38.56815,3.0443 0.24242,-1.43685 2.00405,-2.99898 2.34643,-3.18862 z"
       id="path986"
       inkscape:connector-curvature="0"
       sodipodi:nodetypes="ccccc" />
    <path
       style="fill:#927860;stroke-width:0.35277775"
       d="m 120.25751,122.44744 c 1.69276,-2.62211 28.67717,-3.15636 30.29687,-2.75215 -2.27996,18.43259 -4.84326,62.26458 -2.42267,91.90613 -1.4316,1.87706 -27.58689,8.74414 -29.63873,8.64864 -6.29383,-37.86012 -3.8765,-78.96982 1.76453,-97.80262 z"
       id="path1034"
       inkscape:connector-curvature="0"
       sodipodi:nodetypes="ccccc" />
    <path
       style="fill:#73706f;stroke-width:0.35277775"
       d="m 82.668813,60.969368 c 1.27515,1.6851 2.5265,4.25747 2.5265,6.38756 -11.03973,20.16483 -25.24519,35.581882 -31.27778,52.350702 -3.17403,0.60477 -6.776,1.33025 -9.95004,1.935 12.7943,-19.12536 28.07709,-45.412822 38.70132,-60.673262 z"
       id="path950"
       inkscape:connector-curvature="0"
       sodipodi:nodetypes="ccccc" />
    <path
       style="fill:#73706f;stroke-width:0.35277775"
       d="m 87.431423,53.188798 c 13.965487,6.00224 31.466517,6.7798 43.920837,6.31165 8.03181,18.3865 20.5664,41.314982 29.77414,53.164932 -11.21252,1.09034 -25.59976,1.33298 -36.8297,1.48848 C 114.58945,103.06503 84.638253,57.603428 87.431423,53.188798 Z"
       id="path948"
       inkscape:connector-curvature="0"
       sodipodi:nodetypes="ccccc" />
    <path
       style="fill:#56692e;stroke-width:0.35277775"
       d="m 158.43512,231.9755 0.005,-1.76389 0.14743,0.97499 0.14744,0.97499 -0.15225,0.7889 -0.15225,0.7889 z"
       id="path1217"
       inkscape:connector-curvature="0" />
    <path
       style="fill:#56692e;stroke-width:0.35277775"
       d="m 160.92693,219.09911 v -2.99861 l 0.13505,1.49931 0.13504,1.4993 -0.13504,1.49931 -0.13505,1.49931 z"
       id="path1207"
       inkscape:connector-curvature="0" />
    <path
       style="fill:#56692e;stroke-width:0.35277775"
       d="m 158.7879,214.68939 0.005,-1.76389 0.14743,0.97499 0.14744,0.97499 -0.15225,0.7889 -0.15225,0.7889 z"
       id="path1199"
       inkscape:connector-curvature="0" />
    <path
       style="fill:#56692e;stroke-width:0.35277775"
       d="m 81.870083,148.17312 1.31774,-1.22517 h -0.18495 -0.18495 l 0.66671,-0.71563 0.6667,-0.71562 0.97632,-1.92965 0.97631,-1.92965 0.38495,-2.67203 0.38494,-2.67204 -0.62505,-2.17922 -0.62505,-2.17921 -0.0537,-0.59146 -0.0537,-0.59146 -0.33276,0.20566 -0.33275,0.20565 0.19578,-0.74866 0.19578,-0.74866 -0.22841,0.074 -0.2284,0.074 -2.51645,-2.55551 -2.51645,-2.55552 h 0.19251 0.19251 l 1.70521,1.09423 1.70522,1.09423 -0.20125,0.32562 -0.20124,0.32562 0.46719,-0.0969 0.4672,-0.0969 -0.0969,0.4672 -0.0969,0.46719 0.32293,-0.19958 0.32292,-0.19958 0.62945,0.96711 0.62944,0.96711 0.46621,0.35278 0.46621,0.35277 0.75726,2.11667 0.75727,2.11667 0.0145,2.66438 0.0145,2.66439 -1.30525,2.62727 -1.30524,2.62728 -0.9646,1.06011 -0.96461,1.06011 -1.29938,0.96836 -1.29937,0.96836 -0.28813,-0.01 -0.28812,-0.01 1.31774,-1.22517 z"
       id="path1147"
       inkscape:connector-curvature="0" />
    <path
       inkscape:connector-curvature="0"
       id="path921"
       d="m 107.36337,223.28601 -8.819447,-1.19635 -12.34722,-1.58965 -12.34722,-1.58964 -9.525,-1.22088 -9.525,-1.22087 -1.16418,-0.20739 -1.16417,-0.20738 0.17754,-0.59807 0.17755,-0.59806 0.71491,-5.46806 0.71491,-5.46805 0.69863,-7.40834 0.69863,-7.40833 0.43607,-6.52639 0.43606,-6.52639 0.019,-13.40555 0.019,-13.40556 -0.45793,-6.35 -0.45793,-6.34999 -0.50557,-5.82084 -0.50557,-5.82083 -0.21303,-1.65311 -0.21302,-1.65311 -0.41097,0.14687 -0.41098,0.14688 -5.73208,1.1866 -5.73207,1.18661 -2.49627,-2.76458 -2.49628,-2.76458 5.90445,-8.55746 5.90445,-8.55746 2.70653,-3.880552 2.70653,-3.88056 2.82874,-4.23333 2.82874,-4.23333 2.11654,-3.35139 2.11654,-3.35139 4.86441,-7.9375 4.8644,-7.9375 3.24892,-5.29167 3.24891,-5.29166 1.28392,-2.00633 1.28391,-2.00633 4.67764,2.24184 4.67762,2.24184 3.75478,1.24945 3.75477,1.24946 3.477167,0.69485 3.47717,0.69485 2.78732,0.24787 2.78732,0.24788 -0.22665,-0.84019 -0.22667,-0.84019 -0.23299,-3.96531 -0.23298,-3.96531 -1.79852,-1.02191 -1.79851,-1.02192 -1.32292,-1.33338 -1.32292,-1.33338 v -1.36169 -1.3617 l 3.96875,-3.99402 3.96875,-3.99402 2.82222,-2.38013 2.82223,-2.38014 1.52583,-0.89747 1.52583,-0.89748 0.48191,0.49004 0.48191,0.49004 1.10606,2.23948 1.10605,2.23947 1.7153,5.16886 1.7153,5.16886 0.442,2.19055 0.44201,2.19055 -0.63246,0.69885 -0.63246,0.69886 -1.63396,0.55675 -1.63397,0.55674 -1.85815,0.21839 -1.85815,0.21839 v 1.91026 1.91026 l 0.53888,2.36926 0.53888,2.36926 3.60626,-0.24823 3.60626,-0.24823 1.41111,-0.35173 1.41111,-0.35174 0.70556,-0.21642 0.70555,-0.21641 0.82123,3.80843 0.82122,3.80843 1.582,4.7625 1.58199,4.7625 2.5921,5.36084 2.59209,5.36084 2.03003,3.4586 2.03005,3.4586 2.82321,4.23334 2.82322,4.23333 2.12638,2.822222 2.12637,2.82223 3.24073,3.88056 3.24072,3.88055 0.72684,0.65332 0.72685,0.65332 -1.27793,2.58265 -1.27793,2.58265 -1.96458,0.19656 -1.96459,0.19656 -2.7082,0.22247 -2.70821,0.22247 -0.37531,1.63667 -0.37532,1.63666 -0.6927,3.94085 -0.69271,3.94084 -0.70497,5.055 -0.70497,5.05499 -0.54239,5.29165 -0.54239,5.29167 -0.35115,6.17361 -0.35116,6.17361 -0.003,7.9375 -0.003,7.9375 0.35758,6.70278 0.35757,6.70278 0.51179,5.29166 0.51179,5.29167 0.72917,5.42581 0.72917,5.42581 -0.18002,0.18002 -0.18002,0.18002 -10.68074,3.13251 -10.68075,3.1325 -3.70416,1.07991 -3.70417,1.07991 -2.09697,0.67689 -2.09697,0.6769 -0.90164,-0.0384 -0.90164,-0.0384 -8.81945,-1.19634 z m 8.10372,-3.22482 -0.16891,-0.97014 -0.51486,-5.82083 -0.51485,-5.82083 -0.44557,-6.52639 -0.44557,-6.52639 -0.008,-16.93333 -0.008,-16.93334 0.45625,-5.82083 0.45624,-5.82083 0.53259,-5.46806 0.53259,-5.46804 0.68114,-5.11529 0.68113,-5.11528 0.64694,-3.84163 0.64694,-3.84162 -6.06783,-9.05792 -6.06784,-9.05792 -0.21476,1.78705 -0.21476,1.78704 -0.003,2.74874 -0.003,2.74874 2.58458,-0.23421 2.58458,-0.23421 -0.11688,1.89519 -0.11688,1.8952 -0.70127,16.22777 -0.70127,16.22778 -0.37444,8.46667 -0.37445,8.46666 -0.28184,12.87639 -0.28184,12.87639 0.31454,12.52361 0.31454,12.52361 0.25101,2.82222 0.25101,2.82222 2.82222,0.39142 2.82223,0.39142 0.60854,0.0496 0.60854,0.0496 -0.16892,-0.97014 z m 8.75205,-2.06757 -0.0776,-0.66646 -0.53441,-5.82083 -0.53441,-5.82083 -0.37244,-5.99723 -0.37243,-5.99722 -0.20979,-13.05277 -0.20979,-13.05278 0.41464,-8.46667 0.41465,-8.46666 0.52556,-5.11528 0.52555,-5.11527 0.70912,-4.93889 0.70912,-4.9389 0.8678,-4.22935 0.86779,-4.22936 v -0.25139 -0.25138 l -3.0868,0.20413 -3.08681,0.20413 -0.25569,0.22842 -0.25569,0.22841 -1.22261,9.33986 -1.2226,9.33988 -0.71903,7.23193 -0.71904,7.23194 -0.36031,5.63843 -0.3603,5.63842 0.002,6.53241 0.002,6.53241 0.35191,7.76111 0.35191,7.76111 0.36559,5.46806 0.36559,5.46805 0.51535,5.82083 0.51535,5.82084 0.18483,1.10867 0.18483,1.10867 2.90153,-0.795 2.90154,-0.79498 -0.0776,-0.66646 z m -18.208,-1.6366 -0.31676,-3.26319 -0.0107,-19.57917 -0.0107,-19.57916 0.40784,-10.58334 0.40785,-10.58333 0.53601,-11.81804 0.536,-11.81807 0.51467,-7.73575 0.51466,-7.73575 -0.14239,-0.14238 -0.14238,-0.14239 -3.15963,0.24718 -3.15964,0.24717 -0.22035,3.57402 -0.22035,3.57401 -0.35493,8.11389 -0.35491,8.1139 -0.35163,10.05416 -0.35161,10.05416 -0.003,14.46389 -0.003,14.46389 0.38046,12.34722 0.38046,12.34722 0.23923,4.05695 0.23923,4.05694 1.41111,0.21452 1.41111,0.21453 1.06977,0.0501 1.06977,0.0501 -0.31677,-3.2632 z m -6.421467,-2.11666 -0.18363,-4.67431 -0.34292,-16.40416 -0.34292,-16.40417 0.004,-11.46528 0.004,-11.46527 0.33932,-9.525 0.33931,-9.52499 0.36855,-9.17224 0.368547,-9.17222 0.17676,-1.33452 0.17677,-1.33453 -3.974777,0.0998 -3.97504,0.0998 -0.0943,9.14451 -0.0943,9.14451 0.58348,1.52782 0.58348,1.52783 -0.1782,2.22 -0.1782,2.22 -0.53324,1.04239 -0.53324,1.04239 -0.30693,13.75832 -0.30694,13.75834 0.0846,22.40138 0.0846,22.40139 0.19967,1.80645 0.19967,1.80646 3.59629,0.53022 3.59629,0.53023 0.26191,0.0446 0.2619,0.0446 z m 30.267647,2.84224 2.82327,-0.77373 -0.23483,-3.01863 -0.23482,-3.01863 -0.50373,-8.53716 -0.50374,-8.53715 -0.23419,-12.98229 -0.2342,-12.98229 0.40267,-8.99583 0.40267,-8.99584 0.54271,-5.82083 0.54271,-5.82082 0.69086,-4.72588 0.69085,-4.72586 0.70083,-3.35603 0.70082,-3.35602 v -0.24948 -0.24948 l -2.55764,0.14907 -2.55764,0.14906 -0.7811,0.16016 -0.78111,0.16016 -0.40385,1.49575 -0.40385,1.49576 -0.85128,4.58611 -0.85128,4.58611 -0.68423,5.64446 -0.68422,5.64443 -0.45454,5.11528 -0.45454,5.11528 0.017,17.63888 0.017,17.63889 0.59896,8.46667 0.59895,8.46667 0.41463,5.20347 0.41462,5.20347 h 0.51452 0.51452 l 2.82327,-0.77373 z m -39.610917,-30.18252 -0.004,-30.60347 0.2394,-6.16505 0.23939,-6.16504 -2.03605,1.8147 -2.03605,1.8147 -1.54941,0.82196 -1.54941,0.82196 -0.006,10.40755 -0.006,10.40755 -0.1701,4.05695 -0.17011,4.05694 -0.35477,16.22778 -0.35477,16.22777 -0.20329,2.86997 -0.2033,2.86996 3.11511,0.41875 3.1151,0.41876 0.35278,0.12301 0.35278,0.12302 0.61543,0.0278 0.61544,0.0278 -0.004,-30.60347 z m -9.01538,23.10694 0.22544,-6.08541 0.34061,-16.40417 0.34062,-16.40416 0.001,-10.49514 10e-4,-10.49514 h -0.30013 -0.30014 l -1.1377,0.39661 -1.13771,0.3966 -0.34939,-0.3494 -0.3494,-0.34939 1.82028,-2.07568 1.82029,-2.07569 -0.24433,-8.81943 -0.24433,-8.81945 -1.97341,-2.01925 -1.97341,-2.01925 0.25344,-0.25343 0.25343,-0.25343 1.78679,0.36602 1.78678,0.36601 -0.12011,-5.03185 -0.12011,-5.03186 -0.17639,-0.14845 -0.17639,-0.14845 -3.98402,0.2078 -3.98402,0.2078 0.10346,16.05139 0.10347,16.05139 -0.0676,23.45972 -0.0675,23.45972 -0.35896,10.5684 -0.35896,10.5684 0.14269,0.14268 0.14268,0.14269 3.10605,0.45096 3.10604,0.45096 0.93222,0.0386 0.93222,0.0387 z m 56.534467,4.8214 2.98749,-0.91124 -0.19423,-1.29362 -0.19424,-1.29362 -0.35484,-4.05694 -0.35484,-4.05695 -0.43164,-6.52639 -0.43165,-6.52639 -0.0155,-18.34444 -0.0155,-18.34444 0.45681,-4.93889 0.45681,-4.93889 0.69974,-5.82082 0.69973,-5.82085 1.08373,-5.29166 1.08373,-5.29167 0.0528,-0.50914 0.0528,-0.50915 -1.76389,0.0765 -1.76389,0.0764 -1.31742,0.19819 -1.31742,0.19819 -0.34301,1.29284 -0.34301,1.29284 -0.72754,4.05694 -0.72754,4.05695 -0.70492,5.64445 -0.70493,5.64443 -0.50528,6.70278 -0.50528,6.70278 -0.23361,8.81944 -0.2336,8.81945 0.40202,10.75491 0.40203,10.7549 0.51788,7.76593 0.51789,7.76592 0.22342,2.38125 0.22343,2.38125 h 0.16798 0.16799 l 2.98749,-0.91124 z m -65.664247,-35.95403 0.25977,-27.16389 -0.26863,-18.65976 -0.26864,-18.65976 -3.70279,0.20969 -3.70281,0.20968 -0.11667,0.11667 -0.11667,0.11668 0.32865,6.69173 0.32865,6.69174 0.35843,11.81806 0.35843,11.81805 1.2e-4,3.21951 1.2e-4,3.21951 1.90778,0.1582 1.90778,0.15821 0.91444,0.59917 0.91445,0.59916 -0.005,1.49117 -0.005,1.49118 -0.25918,0.39776 -0.25919,0.39778 -1.50629,0.25178 -1.5063,0.25178 -0.53374,0.53374 -0.53373,0.53373 0.0998,3.7556 0.0998,3.7556 2.20021,1.05834 2.20022,1.05833 0.005,1.27972 0.005,1.27972 -0.4756,0.39471 -0.4756,0.39471 -2.29116,0.0895 -2.29117,0.0895 -0.2312,10.23055 -0.23119,10.23056 -7.1e-4,7.48054 -7e-4,7.48054 1.14653,0.19872 1.14652,0.19873 1.94028,0.2643 1.94028,0.26429 0.23071,-4.41578 0.23072,-4.41579 0.25977,-27.16388 z m -9.23648,30.77986 0.21238,-3.96875 0.22627,-13.79207 0.22626,-13.79206 -0.59073,-0.22669 -0.59073,-0.22668 -0.76542,-1.67986 -0.76542,-1.67986 -0.0103,-5.11528 -0.0103,-5.11528 0.486,-1.67277 0.486,-1.67276 0.88836,-0.95856 0.88835,-0.95855 -0.42132,-12.53812 -0.42133,-12.53813 -0.50228,-10.56856 -0.50227,-10.56855 0.3604,-0.22274 0.36041,-0.22275 -0.1056,-2.28878 -0.10561,-2.28879 -2.93291,4.6773 -2.93292,4.67729 0.54896,4.87501 0.54896,4.87502 0.35305,3.88055 0.35304,3.88057 0.51289,7.05555 0.5129,7.05555 0.23786,8.11389 0.23786,8.11389 -0.40548,8.46666 -0.40548,8.46667 -0.52201,6.87916 -0.522,6.87917 -0.70475,7.23195 -0.70475,7.23194 -0.20763,1.45366 -0.20762,1.45366 2.76724,0.34851 2.76724,0.34851 0.57506,0.0499 0.57506,0.0499 0.21238,-3.96875 z m 85.055947,2.15816 0.211,-0.21099 -0.5229,-4.0163 -0.52291,-4.01629 -0.5454,-6.17361 -0.54541,-6.17361 -0.35209,-7.58472 -0.3521,-7.58473 -0.002,-6.52638 -0.002,-6.52639 0.3607,-6.52639 0.36071,-6.52639 0.52659,-5.46806 0.5266,-5.46804 0.72526,-4.93889 0.72525,-4.9389 0.67778,-3.52778 0.67777,-3.52777 0.34341,-1.19094 0.34341,-1.19094 -2.54575,0.24669 -2.54575,0.24668 -0.22739,0.2387 -0.22739,0.2387 -0.92089,4.05694 -0.9209,4.05694 -0.69431,4.23334 -0.69432,4.23334 -0.5268,4.58611 -0.52681,4.5861 -0.39314,5.46806 -0.39314,5.46805 -0.006,11.1125 -0.006,11.1125 0.39533,7.23195 0.39534,7.23194 0.70939,8.64306 0.7094,8.64305 0.19392,1.09505 0.19392,1.09504 2.59288,-0.74831 2.59288,-0.74832 0.21099,-0.21099 z m -77.907417,-34.66151 0.0444,-0.0404 0.21796,-0.71175 0.21796,-0.71175 -1.72393,-0.61228 -1.72393,-0.61229 -0.77573,-0.62815 -0.77574,-0.62815 -0.3049,-2.63393 -0.3049,-2.63392 0.20044,-1.63053 0.20045,-1.63052 0.24484,-0.39615 0.24483,-0.39616 1.91243,-0.65005 1.91242,-0.65005 0.22939,-1.1216 0.22939,-1.12159 -0.3334,-0.20605 -0.33339,-0.20605 -2.02701,-0.18381 -2.027,-0.1838 -1.09344,0.56544 -1.09345,0.56545 -0.54257,1.68245 -0.54257,1.68246 -0.23252,2.83458 -0.23252,2.83458 0.40566,2.61454 0.40566,2.61454 0.4298,0.90088 0.42979,0.90088 1.58474,0.41256 1.58473,0.41256 1.76389,-0.19577 1.76388,-0.19577 z m 12.41459,-28.70182 1.29938,-0.96836 0.9646,-1.06011 0.9646,-1.06011 1.30525,-2.62728 1.30524,-2.62727 -0.0145,-2.66439 -0.0145,-2.66438 -0.75726,-2.11668 -0.75727,-2.11667 -0.46621,-0.35277 -0.46621,-0.35278 -0.62944,-0.96711 -0.62944,-0.96711 -0.32293,0.19958 -0.32293,0.19958 0.0969,-0.46719 0.0969,-0.4672 -0.4672,0.0969 -0.46719,0.0969 0.20125,-0.32562 0.20124,-0.32562 -1.70521,-1.09423 -1.70521,-1.09423 h -0.19252 -0.19251 l 2.51645,2.55552 2.51645,2.55551 0.22841,-0.074 0.2284,-0.074 -0.19578,0.74866 -0.19578,0.74866 0.33275,-0.20565 0.33276,-0.20566 0.0537,0.59146 0.0537,0.59146 0.62505,2.17922 0.62506,2.17922 -0.38495,2.67204 -0.38495,2.67203 -0.97631,1.92965 -0.97631,1.92965 -0.66671,0.71562 -0.66671,0.71563 h 0.18495 0.18495 l -1.31774,1.22517 -1.31773,1.22518 0.28812,0.01 0.28812,0.01 1.29938,-0.96836 z m 2.89542,-9.16256 0.4294,-2.18258 -0.22772,-1.51858 -0.22773,-1.51858 -0.88072,-1.90094 -0.88071,-1.90094 -0.19008,0.19008 -0.19008,0.19008 0.25218,6.61457 0.25218,6.61455 0.61694,-1.20254 0.61694,-1.20253 z m 5.76911,-17.12116 0.23085,-8.02569 h -4.23897 -4.23898 v 3.29964 3.29964 l 0.22617,2.16384 0.22617,2.16385 2.53975,1.3939 2.53975,1.3939 1.20283,1.16831 1.20283,1.16831 h 0.0394 0.0394 z m -41.32001,-1.6861 4.14513,-0.77163 v -0.9907 -0.99069 l -0.41979,-0.13993 -0.41978,-0.13993 2.97742,-4.64187 2.97743,-4.64187 4.92283,-7.68302 4.92283,-7.683012 6.41304,-9.90571 6.41304,-9.90571 1.74538,-2.81413 1.74538,-2.81413 -1.26326,-3.19378 -1.26324,-3.19378 -1.73436,3.03723 -1.73435,3.03723 -3.76348,6.35 -3.76347,6.35 -3.97893,6.35 -3.97894,6.35 -8.60771,12.876392 -8.60771,12.87639 -1.26618,1.72301 -1.26619,1.72301 0.82989,-0.19587 0.82988,-0.19587 z m -1.15097,-9.16181 6.42024,-9.34862 5.03019,-7.584722 5.03018,-7.58472 4.52643,-7.40834 4.52642,-7.40833 4.45216,-7.61458 4.45215,-7.61458 1.17037,3.02847 1.17037,3.02847 3.10548,6.35 3.10547,6.35 2.94953,5.11528 2.94952,5.11527 3.507207,5.46806 3.50721,5.46805 2.149,3.175 2.149,3.175002 1.71168,2.46945 1.71168,2.46945 4.05581,5.60917 4.0558,5.60917 1.3418,-1.55223 1.34179,-1.55223 0.0105,-0.3678 0.0105,-0.36781 -2.53217,-2.98358 -2.53217,-2.98358 -3.51376,-4.72888 -3.51377,-4.728872 -3.23379,-4.97252 -3.23378,-4.97251 -2.14139,-3.70417 -2.1414,-3.70417 -3.872287,-7.40833 -3.87231,-7.40833 -2.91964,-5.82084 -2.91965,-5.82083 -1.38167,-2.38125 -1.38167,-2.38125 h -0.31841 -0.31844 l -1.6213,2.38125 -1.6213,2.38125 -1.35718,2.11667 -1.35719,2.11667 -6.33537,10.40694 -6.33538,10.40694 -2.02498,3.30378 -2.02499,3.30378 -3.36395,5.16288 -3.36396,5.1629 -4.4349,6.350002 -4.43491,6.35 -2.51159,3.35139 -2.5116,3.35139 -0.22967,0.38782 -0.22967,0.38783 1.09379,1.48733 1.0938,1.48732 0.26795,-0.28765 0.26796,-0.28765 6.42024,-9.34861 z m 95.550017,6.74994 16.34697,-1.28636 0.48113,-1.14429 0.48114,-1.1443 -0.9531,0.004 -0.95311,0.004 -16.93334,1.05223 -16.93333,1.05224 -0.70555,0.0159 -0.70556,0.0159 -1.17321,1.59431 -1.17322,1.59431 2.93711,-0.23575 2.9371,-0.23575 16.34697,-1.28636 z m -1.17753,-4.63638 11.64167,-0.35039 3.24541,-0.20762 3.2454,-0.20762 -1.84167,-2.17327 -1.84168,-2.17327 -3.89924,-5.46806 -3.89924,-5.468062 -2.38741,-3.65855 -2.3874,-3.65855 -2.41909,-4.22243 -2.41908,-4.22242 -2.62063,-6.23014 -2.62063,-6.23013 -1.71904,-4.83003 -1.71903,-4.83002 -5.82617,0.2078 -5.82617,0.20781 -5.8155,-0.43634 -5.8155,-0.43634 -4.05694,-0.67882 -4.056937,-0.67882 -3.11349,-0.89115 -3.11349,-0.89116 -3.14832,-1.35731 -3.14832,-1.35732 v 0.10266 0.10265 l 1.27146,2.23875 1.27146,2.23875 3.53649,7.05481 3.53649,7.05481 2.65262,4.93964 2.652627,4.93963 3.1749,5.29166 3.17492,5.29167 3.8782,5.82083 3.87821,5.820842 3.29646,4.23334 3.29647,4.23333 0.62248,0.80084 0.62249,0.80085 3.52778,-0.18624 3.52778,-0.18623 z m -20.1857,-5.43577 -1.01345,-0.85277 -0.91397,-1.70487 -0.91397,-1.70488 -0.24009,-0.79375 -0.24009,-0.79375 h 0.30049 0.30049 l 0.57667,0.97622 0.57666,0.97621 1.46966,1.66962 1.46965,1.66962 2.88044,-0.004 2.88044,-0.004 1.32291,-0.21867 1.32292,-0.21866 -0.002,-0.57121 -0.002,-0.5712 -0.86912,-1.41111 -0.86913,-1.41111 -0.011,-0.26458 -0.0111,-0.26459 h 0.36655 0.36656 l 1.21845,2.54249 1.21846,2.54249 -0.30715,0.30716 -0.30716,0.30715 -1.36605,0.31694 -1.36605,0.31694 -3.41251,0.008 -3.41252,0.008 -1.01345,-0.85276 z m 14.35764,-6.93861 -0.88918,-0.32734 -1.15703,-1.767382 -1.15702,-1.76738 -0.49579,-1.40521 -0.49579,-1.40521 h 0.30036 0.30035 l 1.12563,1.75414 1.12563,1.75414 1.2579,1.10445 1.2579,1.104452 3.97548,-0.126202 3.97548,-0.1262 0.27281,-0.2728 0.27281,-0.27281 -0.96738,-1.97244 -0.96737,-1.97244 0.15294,-0.15295 0.15295,-0.15294 0.72438,0.92089 0.72438,0.9209 0.59341,1.55383 0.59341,1.553822 -0.18854,0.49133 -0.18855,0.49133 -1.35361,0.22364 -1.35361,0.22365 -3.35139,-0.0239 -3.35139,-0.024 -0.88917,-0.32734 z m -9.28049,-7.343542 -1.35021,-0.28512 -0.65801,-0.66846 -0.658,-0.66846 -1.25498,-2.09591 -1.25497,-2.09591 v -0.46173 -0.46172 l 0.26458,0.003 0.26459,0.003 1.92858,2.47363 1.92859,2.47365 1.4228,0.38873 1.42281,0.38873 3.82854,-0.19673 3.82854,-0.19673 0.21361,-0.21361 0.21361,-0.21361 -1.15562,-2.10206 -1.15561,-2.10206 h 0.37165 0.37165 l 0.87142,1.32291 0.87141,1.32292 0.54433,1.3107 0.54434,1.3107 -0.75572,0.40445 -0.75571,0.40445 -4.271,0.12037 -4.271,0.12038 -1.35022,-0.28513 z m -17.17061,-14.90247 -0.88195,-1.13684 -0.78274,-1.25803 -0.78274,-1.25803 -0.007,-0.52917 -0.007,-0.52916 2.09739,2.25883 2.09739,2.25884 3.88111,-0.23572 3.88111,-0.23572 0.54405,-0.20878 0.54406,-0.20877 v -0.33208 -0.33207 l -0.70312,-1.4553 -0.70312,-1.4553 0.17179,-0.1718 0.17179,-0.17179 0.68274,0.61788 0.68275,0.61787 0.55414,1.16777 0.55414,1.16777 v 0.6838 0.68382 l -0.97014,0.45046 -0.97014,0.45046 -4.58611,0.14895 -4.58611,0.14894 -0.88194,-1.13683 z m -10.1414,-6.7397 -1.107567,-1.14653 -0.71777,-1.5875 -0.71777,-1.5875 -0.008,-0.64676 -0.008,-0.64676 0.36808,0.12269 0.36809,0.1227 1.333197,2.46434 1.3332,2.46434 4.42262,0.0984 4.42261,0.0984 0.97,-0.36879 0.97,-0.36879 -0.39299,-0.47353 -0.39299,-0.47352 -0.70369,-2.0453 -0.70369,-2.0453 0.0291,-1.0913 0.0291,-1.0913 1.53352,3.23744 1.53352,3.23745 0.81867,0.44279 0.81867,0.44279 3.88056,-0.0112 3.88055,-0.0112 0.81845,-0.26103 0.81844,-0.26103 -0.24218,-2.26145 -0.24218,-2.26144 h 0.38028 0.38028 l 0.33797,1.32291 0.33797,1.32292 0.23131,1.4727 0.23131,1.47271 -0.72873,0.39 -0.72873,0.39 -5.03042,-0.0397 -5.03043,-0.0397 -0.88195,-0.0265 -0.88194,-0.0264 -2.29306,0.40559 -2.29305,0.40558 -3.0176,0.003 -3.01761,0.003 -1.10757,-1.14652 z m -32.063467,40.071892 1.36318,-0.22519 -0.25182,-5.32718 -0.25181,-5.32716 -0.22942,-2.116672 -0.22943,-2.11667 -0.86219,1.41111 -0.8622,1.41111 -1.69544,2.583542 -1.69545,2.58353 v 3.67828 3.67827 l 1.6757,-0.004 1.67569,-0.004 1.36319,-0.2252 z m 9.30711,-7.52815 0.087,-7.231942 -0.26335,-6.86777 -0.26336,-6.86777 -3.32082,5.27505 -3.32082,5.27504 -0.31016,3.42504 -0.31015,3.425042 0.54417,5.18065 0.54417,5.18067 v 0.3204 0.32041 l 3.2632,-0.10143 3.26319,-0.10144 z m 8.33938,-7.408332 -0.0403,-14.2875 -0.57072,-5.25595 -0.57073,-5.25595 -0.14221,-0.14221 -0.14221,-0.14221 -2.81782,4.51622 -2.81782,4.51621 0.0933,13.58195 0.0933,13.581952 0.0382,1.68846 0.0382,1.68847 3.43958,-0.10097 3.43959,-0.10097 z m 8.53874,0.79375 -0.0553,-13.31736 -2.49755,-4.23333 -2.49755,-4.23334 -1.12975,-2.24055 -1.12974,-2.24056 -0.11093,0.12389 -0.11093,0.12389 0.28928,18.87361 0.28928,18.873622 0.0211,0.79375 0.0211,0.79375 h 3.48311 3.48311 z m 6.759217,12.968472 2.55764,-0.004 v -5.8827 -5.882702 l -3.73904,-5.75897 -3.739037,-5.75897 h -0.14152 -0.14151 v 11.86421 11.864222 l 1.32292,-0.21866 1.32291,-0.21867 z m 18.20804,-55.654582 -0.27538,-2.02847 0.0378,-3.70417 0.0378,-3.70416 0.56114,-1.76389 0.56115,-1.76389 0.004,-0.22628 0.004,-0.22628 -1.37637,-0.55071 -1.37636,-0.55071 -1.77369,-0.23529 -1.77369,-0.23529 -0.38199,1.4186 -0.38199,1.41859 -0.35002,2.7607 -0.35002,2.7607 0.19817,1.77187 0.19817,1.77188 0.36144,2.36381 0.36144,2.36382 1.82315,0.12856 1.82315,0.12857 1.17191,0.0653 1.17193,0.0653 z m 4.27656,-9.37753 1.7589,-0.81359 -1.75772,-1.27558 -1.75773,-1.27559 -0.23224,0.41802 -0.23224,0.41802 -0.24996,1.6757 -0.24997,1.67569 0.48103,-0.005 0.48102,-0.005 1.75891,-0.81359 z m -12.16585,-1.23794 v -0.60785 l 0.47749,-1.84077 0.47749,-1.84077 h -0.27419 -0.27419 l -1.82846,0.42206 -1.82845,0.42206 -0.17891,0.46622 -0.17891,0.46622 0.4043,0.96381 0.4043,0.9638 1.10717,0.77737 1.10717,0.77738 0.29259,-0.18083 0.2926,-0.18084 z m 13.45814,-5.98134 -1.40436,-4.2003 -1.29046,-2.7194 -1.29047,-2.71939 -0.50499,-0.19378 -0.50499,-0.19379 -2.41213,1.97344 -2.41214,1.97344 -3.08889,3.20424 -3.08889,3.20424 0.13296,0.13296 0.13297,0.13297 1.40121,-0.32487 1.40121,-0.32487 1.80393,-0.008 1.80393,-0.008 1.90024,0.35236 1.90023,0.35235 2.47664,1.21438 2.47664,1.21439 0.86776,0.92369 0.86775,0.92368 0.1181,-0.3543 0.1181,-0.3543 -1.40435,-4.20031 z"
       style="fill:#0b0908;stroke-width:0.35277775" />
  </g>
</svg>
