<?xml version="1.0" encoding="UTF-8" standalone="no"?>
<!-- Created with Inkscape (http://www.inkscape.org/) -->

<svg
   xmlns:dc="http://purl.org/dc/elements/1.1/"
   xmlns:cc="http://creativecommons.org/ns#"
   xmlns:rdf="http://www.w3.org/1999/02/22-rdf-syntax-ns#"
   xmlns:svg="http://www.w3.org/2000/svg"
   xmlns="http://www.w3.org/2000/svg"
   xmlns:sodipodi="http://sodipodi.sourceforge.net/DTD/sodipodi-0.dtd"
   xmlns:inkscape="http://www.inkscape.org/namespaces/inkscape"
   width="272.4794"
   height="220.54649"
   id="svg3836"
   version="1.1"
   inkscape:version="0.48.5 r10040"
   sodipodi:docname="Nieuw document 3">
  <defs
     id="defs3838" />
  <sodipodi:namedview
     id="base"
     pagecolor="#ffffff"
     bordercolor="#666666"
     borderopacity="1.0"
     inkscape:pageopacity="0.0"
     inkscape:pageshadow="2"
     inkscape:zoom="0.35"
     inkscape:cx="136.23969"
     inkscape:cy="110.27324"
     inkscape:document-units="px"
     inkscape:current-layer="layer1"
     showgrid="false"
     fit-margin-top="0"
     fit-margin-left="0"
     fit-margin-right="0"
     fit-margin-bottom="0"
     inkscape:window-width="1440"
     inkscape:window-height="851"
     inkscape:window-x="0"
     inkscape:window-y="0"
     inkscape:window-maximized="1" />
  <metadata
     id="metadata3841">
    <rdf:RDF>
      <cc:Work
         rdf:about="">
        <dc:format>image/svg+xml</dc:format>
        <dc:type
           rdf:resource="http://purl.org/dc/dcmitype/StillImage" />
        <dc:title></dc:title>
      </cc:Work>
    </rdf:RDF>
  </metadata>
  <g
     inkscape:label="Laag 1"
     inkscape:groupmode="layer"
     id="layer1"
     transform="translate(-238.76031,-422.08894)">
    <g
       transform="translate(166.50845,-265.04273)"
       id="g3803">
      <path
         inkscape:connector-curvature="0"
         id="path3222"
         d="m 107.24024,784.83141 c -1.20538,0.43943 -2.44637,0.94182 -3.43965,1.87594 -0.73576,0.87618 -1.06544,2.05173 -1.021,3.15666 0.0596,1.28013 0.21667,2.55067 0.31497,3.82699 0.14529,1.60977 0.44354,3.18238 0.62658,4.78378 0.68296,4.93014 1.16591,9.9085 1.71123,14.87126 0.2388,2.51685 0.48263,5.03463 0.6379,7.56719 0.0372,1.35265 -0.0637,2.71699 -0.0162,4.06914 -0.0489,8.52322 -0.11766,17.0485 -0.15417,25.57043 0.0349,1.28874 0.13537,2.57636 0.37509,3.82085 0.46233,2.39919 0.98682,4.78932 1.81079,7.04498 0.48009,1.15596 1.12259,2.20842 1.71011,3.29488 0.8153,1.24762 1.9394,2.1889 3.0386,3.12917 1.23573,0.93714 2.58739,1.69746 4.00976,2.29977 1.78802,0.86578 3.69786,1.43903 5.58077,2.07126 4.60367,1.41781 9.24851,2.7129 13.86734,4.08586 3.40034,0.98267 6.81615,1.91891 10.23167,2.85458 3.7773,1.02927 7.60105,1.90451 11.39183,2.88972 7.5609,1.93138 15.15896,3.73764 22.73489,5.61849 10.27332,2.48854 20.57037,4.89541 30.85626,7.34058 3.16297,0.74453 6.34032,1.44006 9.52617,2.10095 5.67231,1.09629 11.33905,2.21539 17.0333,3.22273 1.30847,0.1834 2.5824,0.58522 3.91588,0.61458 1.20303,-0.008 2.4885,-0.78348 2.91655,-2.09289 0.48365,-1.32537 0.2673,-2.71891 0.36564,-4.07052 -0.005,-2.29431 -0.10115,-4.57739 -0.11634,-6.8705 -0.32994,-13.06633 -0.6408,-26.13534 -1.06186,-39.18948 -0.34301,-15.23986 -0.68601,-30.4797 -1.02902,-45.71956 -0.27156,-2.8329 -0.56235,-5.66159 -0.87224,-8.4861 -0.58984,-1.10858 -1.39648,-2.38594 -2.73691,-2.43026 -1.28635,-0.04 -2.42042,0.88882 -3.57041,1.48855 -3.64159,2.1072 -7.30871,4.15456 -10.96287,6.23194 -1.96511,1.15333 -3.91843,2.34964 -5.96529,3.29666 -1.24125,0.51763 -2.47683,1.09078 -3.77186,1.35921 -1.11212,0.12974 -2.2121,0.0223 -3.27546,-0.20578 -1.6606,-0.23183 -3.31371,-0.50139 -4.95986,-0.79565 -3.20974,-0.41569 -6.36706,-1.07168 -9.53263,-1.67915 -14.38863,-2.80565 -28.78772,-5.57006 -43.1612,-8.43546 -13.63619,-2.69617 -27.26928,-5.40446 -40.90322,-8.10945 -1.54661,-0.23805 -3.09072,-0.49842 -4.66605,-0.58416 -0.48119,0.11957 -0.96414,0.006 -1.43904,0.18279 z m 35.93368,25.21466 c 1.85109,0.0454 3.64467,0.43491 5.46372,0.66598 4.26827,0.62047 8.47901,1.49219 12.71519,2.25131 1.42179,0.296 2.88498,0.44781 4.26427,0.89173 1.2883,0.4799 2.61641,0.87941 3.79724,1.59723 1.48702,0.87068 2.91391,1.8604 4.20865,3.01862 1.03215,1.02857 2.00831,2.1234 2.84002,3.35004 0.79374,1.06108 1.26403,2.36196 1.77338,3.61297 0.41553,1.12524 0.71545,2.30375 0.89519,3.51998 0.30714,1.82837 0.57808,3.6672 0.74907,5.52999 0.14886,1.59341 0.39739,3.16807 0.44999,4.77972 -0.0593,2.51356 -0.11638,5.02698 -0.17326,7.54037 -0.0988,1.1398 -0.38078,2.38486 -1.22466,3.23419 -0.84741,0.81804 -1.99104,0.90118 -2.98683,0.70514 -1.59303,-0.24784 -3.13434,-0.69913 -4.7202,-0.97859 -6.53003,-1.3437 -13.0595,-2.68962 -19.58466,-4.05191 -1.22411,-0.32579 -2.42047,-0.7422 -3.59754,-1.19687 -0.94024,-0.35259 -1.77551,-0.9641 -2.35715,-1.82127 -0.64747,-0.9192 -1.16895,-1.95146 -1.74369,-2.93231 -0.57909,-0.98556 -0.91046,-2.1396 -1.58543,-3.05521 0.11473,1.3602 0.0168,2.74449 -0.0704,4.12357 -0.008,0.70076 0.005,1.40005 -0.0518,2.10392 0.18888,-0.75397 0.22576,-1.5247 0.41493,-2.27865 0.11284,1.37642 -0.0876,2.78243 -0.1423,4.17424 0.16267,0.8186 0.42177,1.60328 0.77516,2.33206 -0.77292,-0.96623 -1.19779,-2.23953 -1.2032,-3.57091 -0.263,-3.33583 -0.56438,-6.6638 -0.90393,-9.98395 -0.2182,-2.83989 -0.48829,-5.6702 -0.65113,-8.52026 0.0547,-2.33475 0.12074,-4.67156 0.34591,-7.01342 0.13222,-1.43086 0.26444,-2.86176 0.39666,-4.29263 0.38745,-1.1346 0.6701,-2.36861 1.44875,-3.31374 0.15072,-0.13192 0.22904,-0.44186 0.45807,-0.42129 z m 1.3693,38.70102 c 1.00038,0.60493 2.15367,0.90321 3.31513,1.06964 -1.21431,-0.14757 -2.62636,-0.1578 -3.46795,-1.16467 l 0.15282,0.0951 z m 9.62354,2.66546 c 0.40353,0.13131 0.86689,0.0536 1.23776,0.28331 -0.21044,0.24637 -0.88043,-0.2522 -0.77029,0.1981 -0.19388,-0.18096 -0.38776,-0.3619 -0.58164,-0.54285 l 0.11416,0.0615 z"
         style="fill:#d4aa00;fill-opacity:1" />
      <path
         inkscape:connector-curvature="0"
         id="path3224"
         d="m 290.6641,729.24672 c -0.24178,0.0638 -0.45156,0.28127 -0.60845,0.48945 -6.30717,8.74246 -12.59444,17.51497 -18.90982,26.25319 -3.63788,5.20751 -7.24931,10.40065 -10.66977,15.7661 -2.12171,3.21357 -4.22765,6.5185 -5.77276,10.06635 -1.0969,2.23053 -1.75072,4.63787 -1.97643,7.06759 -0.33098,8.29723 -0.46669,16.56536 -0.60305,24.84852 -0.22038,9.64676 -0.1469,19.29366 0.13911,28.8861 0.44797,10.65186 1.24353,21.23953 1.9085,31.85546 0.5216,6.27294 0.8354,12.5945 1.6432,18.80697 0.28571,1.91844 0.94241,3.94334 2.52831,4.94799 1.46183,0.75362 3.28449,0.39632 4.85109,-0.23537 10.98189,-4.0932 21.91627,-8.28471 32.86479,-12.51194 5.58475,-2.1747 11.12964,-4.50806 16.73121,-6.61851 1.60386,-0.73593 3.41733,-1.08173 4.75009,-2.43431 0.73625,-1.19415 0.72286,-2.60603 0.82187,-3.92333 -0.34649,-15.86968 -0.68438,-31.74158 -1.03624,-47.61059 -0.32259,-15.63632 -0.74258,-31.25586 -1.15119,-46.88104 -0.0738,-4.92725 -0.39536,-9.82954 -0.71318,-14.71928 -0.27049,-2.79835 -0.33389,-5.64964 -0.9774,-8.35124 -0.38637,-2.12417 -1.54196,-3.87404 -2.66772,-5.55919 -1.92783,-2.6906 -4.07335,-5.213 -6.21763,-7.69983 -3.38142,-3.95145 -6.99331,-7.70493 -11.17975,-10.68999 -1.11829,-0.66352 -2.24033,-1.40014 -3.49501,-1.75368 -0.0829,-0.0168 -0.17917,-0.0207 -0.25977,5.9e-4 z m 6.60634,71.10995 c 1.47384,-0.34628 3.00002,-0.29686 4.355,0.27627 1.50046,0.47837 2.17943,2.21374 2.47601,3.80926 0.58348,2.9786 0.93843,6.01728 1.38018,9.04037 0.71158,5.85402 1.43906,11.75784 1.18733,17.77012 -0.0248,1.61323 -1.72571,2.50588 -2.94252,2.19461 -1.59133,-0.48311 -3.17063,0.65036 -4.65139,1.35131 -3.54321,1.34326 -7.18506,2.30492 -10.79926,3.25025 -4.77979,1.20093 -9.78827,2.48724 -14.48935,1.28944 -2.06592,-0.47145 -4.33393,-1.55388 -4.97036,-3.97753 -0.25536,-2.85177 -0.25421,-5.77244 0.0841,-8.67341 0.36021,-2.47147 0.38532,-5.01866 1.29325,-7.39704 0.80608,-1.22174 0.44865,-2.75563 -0.13989,-3.85384 -0.81669,-1.29494 -0.57548,-3.09571 0.0506,-4.55551 0.92307,-2.02439 2.50363,-3.98367 4.50348,-4.57119 1.6414,0.19706 3.30781,-0.0273 4.97067,-0.0561 1.30657,-0.25447 2.39946,0.0109 3.37982,0.86191 0.9224,-1.31563 2.41179,-1.83018 3.66514,-2.62259 3.60569,-1.08909 7.05286,-2.99793 10.64723,-4.1363 z"
         style="fill:#d4aa00" />
      <path
         sodipodi:nodetypes="ccccccccccccccccccccccccccccccccccccccccccccccccccccccccccccccccccccscccccccccccccccccccccccccscccccccccccccccccccccccccccccsccccsccsccccccccccccscccsccccccccccccscccccccccccccccccccccccccccccccccsccccccccccccccscccccc"
         inkscape:connector-curvature="0"
         id="path3188"
         d="m 147.25449,687.1812 c -0.21876,0.0536 -0.42167,0.15942 -0.61567,0.33239 -1.03099,0.74337 -1.58039,2.01504 -2.54154,2.84445 -15.87002,18.54994 -31.73743,37.11945 -47.738065,55.54143 -7.543117,4.46751 -17.992241,21.96031 -22.947931,26.01671 -0.9339,0.71758 -1.64411,2.25636 -0.74559,3.16017 0.84361,0.89172 2.15605,0.91641 3.25226,1.31665 6.948561,1.89132 7.687999,1.80773 14.594799,3.82548 1.689435,0.20774 3.130581,1.44629 3.814295,3.04887 1.049984,3.05018 1.09287,6.43802 1.373992,9.7136 0.452171,12.37329 0.703991,24.78109 1.039192,37.17019 0.16184,4.31508 0.201773,8.63984 0.445953,12.94149 0.787017,6.33336 1.531482,12.70811 3.054405,18.82622 0.83956,3.50423 1.92358,6.92744 2.99831,10.33263 0.5821,1.49788 1.00592,3.07966 1.76422,4.47287 1.30684,2.15064 3.64445,3.11573 5.85842,3.91944 4.23389,1.3971 8.61524,2.38623 12.92966,3.53877 9.24176,2.42 18.5487,4.67241 27.8862,6.76442 6.55522,1.5254 13.08809,3.11509 19.69008,4.47159 6.41192,1.39085 12.91479,2.38256 19.38704,3.52979 10.64016,1.83417 21.30432,3.55653 32.03504,4.97662 5.07878,0.74458 10.17198,1.44167 15.27456,2.06922 4.79752,0.61261 9.60174,1.25319 14.43856,1.64486 2.48731,0.24388 4.97965,-0.70757 7.43513,-1.34641 7.38379,-2.53559 14.66694,-5.44844 22.00367,-8.18443 14.0596,-5.30764 28.09697,-10.75342 42.12245,-16.19629 2.0372,-1.05873 3.16799,-3.60426 3.07142,-5.85266 0.0477,-7.46208 -0.38035,-14.86166 -0.57857,-22.29325 -0.76504,-21.80506 -1.45563,-43.6531 -2.5957,-65.40233 -0.38761,-7.50022 -0.83705,-14.97081 -1.29139,-22.45993 0.0102,-1.27195 1.25017,-2.65471 2.45262,-2.35618 3.14174,1.41492 6.02149,3.32317 8.88775,5.23095 2.75575,1.72616 5.49604,3.47774 8.22083,5.25491 1.00283,0.46345 2.73326,-0.5325 2.47426,-1.88498 -2.33509,-4.22898 -5.45343,-7.82499 -8.46891,-11.46473 -5.8134,-6.92499 -11.5296,-13.96136 -17.43369,-20.79649 -5.27354,-6.12671 -10.47726,-12.29772 -15.90706,-18.26418 -1.67863,-1.78978 -3.28107,-3.68608 -5.35071,-4.98649 -2.84704,-1.86367 -6.03598,-3.15579 -9.31635,-4.05747 -5.93929,-1.84518 -12.13163,-2.88169 -18.2294,-4.18317 -18.51381,-3.39555 -37.03211,-6.68177 -55.60285,-9.83777 -18.20381,-3.16208 -36.43297,-6.35196 -54.6563,-9.43037 -3.48945,-0.58523 -6.9798,-1.19451 -10.47192,-1.74348 -0.62246,-0.089 -1.35721,-0.3641 -2.01347,-0.20305 z m -1.60226,8.74977 c 0.1714,-0.0486 0.34716,-0.0498 0.51773,-0.0405 5.93392,0.40342 11.79178,1.33864 17.65294,2.13691 23.69128,3.51303 47.38256,6.97252 71.07225,10.4928 13.83051,2.14242 27.65192,4.20257 41.4867,6.32411 2.00067,0.29504 4.07475,0.7134 5.69455,1.96749 1.13081,0.90715 2.54022,1.81893 2.7582,3.48885 0.43544,2.18359 -0.34854,4.62634 -1.78418,6.40517 -2.38412,3.56613 -4.82363,7.07945 -7.53985,10.37891 -3.88029,4.97952 -7.89668,9.87021 -11.94361,14.69744 -6.62421,8.03432 -13.5221,15.77407 -20.36817,23.59167 -4.31236,4.60337 -8.58873,9.2413 -13.30377,13.36531 -2.85021,2.41859 -5.9564,4.6259 -9.34093,5.91174 -2.89672,1.17112 -5.91472,1.91019 -8.92623,2.01179 -4.51615,0.23314 -8.91469,-0.50173 -13.27089,-1.27153 -9.80192,-1.754 -19.53922,-3.78886 -29.28736,-5.75704 -14.50354,-2.99095 -29.02009,-5.99602 -43.50504,-9.05727 -11.06111,-2.39532 -22.1399,-4.72259 -33.208365,-7.08897 -1.209031,-0.33011 -2.466412,-0.51044 -3.609955,-1.0241 -0.941311,-0.56502 -1.183625,-2.09606 -0.4391,-3.09578 1.039576,-1.27009 2.005495,-2.62963 3.010581,-3.94511 6.018244,-7.9055 12.056929,-15.79131 18.177649,-23.60916 10.98316,-14.13474 21.99256,-28.25292 32.97721,-42.38599 0.87457,-1.09382 1.653,-2.32083 2.67092,-3.25991 0.15288,-0.10003 0.33732,-0.18801 0.50872,-0.23678 z m 147.31318,34.93749 c 0.0806,-0.0214 0.17691,-0.0159 0.25977,-6.8e-4 1.25466,0.35353 2.37671,1.09014 3.49501,1.75366 4.18643,2.98507 7.79832,6.73855 11.17975,10.69001 2.14427,2.48682 4.28979,5.00923 6.21762,7.69982 1.12577,1.68517 2.28136,3.43502 2.66773,5.55919 0.64352,2.70162 0.70691,5.55291 0.9774,8.35124 0.31786,4.88974 0.67634,9.78634 0.75002,14.71359 0.40861,15.62518 0.79176,31.25041 1.11435,46.88674 0.35185,15.869 0.68975,31.74089 1.03624,47.6106 -0.0991,1.31726 -0.0856,2.72916 -0.82187,3.92332 -1.33276,1.35258 -3.14623,1.69836 -4.75009,2.4343 -5.60158,2.11045 -11.14646,4.44381 -16.73122,6.61851 -10.94853,4.22722 -21.88289,8.41876 -32.86478,12.51194 -1.56658,0.63158 -3.38926,0.98899 -4.85109,0.23538 -1.58591,-1.00467 -2.20575,-3.03524 -2.49146,-4.9537 -0.80779,-6.21246 -1.15845,-12.52834 -1.68005,-18.80127 -0.66497,-10.61594 -1.46054,-21.20359 -1.9085,-31.85546 -0.28601,-9.59243 -0.3595,-19.23933 -0.13911,-28.8861 0.13635,-8.28316 0.27207,-16.55129 0.60305,-24.84852 0.22571,-2.42973 0.87954,-4.83706 1.97643,-7.06759 1.54512,-3.54783 3.65105,-6.85279 5.77275,-10.06636 3.42047,-5.36544 7.0319,-10.55856 10.66978,-15.7661 6.31538,-8.73822 12.60264,-17.51072 18.90982,-26.25316 0.15688,-0.20819 0.36667,-0.42556 0.60845,-0.48946 z m -188.20792,53.23926 c 0.98325,-0.0125 2.83585,7.54577 3.11927,1.65352 -0.11064,-1.28153 2.34407,0.53182 3.69166,0.37876 l 0.18426,-0.0285 c 20.04572,3.95278 40.02554,8.2228 60.0238,12.35791 10.09268,2.14525 20.16254,4.32815 30.18545,6.72555 2.7605,0.70956 5.59282,1.29473 8.10178,2.66331 1.76133,0.88607 3.77188,1.2227 5.79506,0.92378 2.0878,-0.13673 4.22003,-0.53479 6.20458,-1.47268 3.54035,-1.58677 6.45631,-4.46861 9.55561,-6.89398 3.08599,-2.48202 6.10055,-5.05369 9.15282,-7.58313 1.02512,-0.84293 2.70693,-0.71848 3.14428,0.58195 0.54282,1.432 0.52057,3.04808 0.65685,4.60441 0.80243,13.07332 1.56843,26.14325 2.0633,39.26606 0.46935,11.32867 0.67267,22.70363 1.00727,34.05104 0.27513,10.03872 0.53055,20.08932 0.79006,30.13008 -0.0622,1.13851 -0.5922,2.45416 -1.68492,2.90985 -0.16302,0.056 -0.3127,0.0898 -0.47728,0.11321 -0.96507,0.13772 -1.96565,-0.21439 -2.90874,-0.30199 -11.71064,-2.38664 -23.41188,-4.87746 -35.11127,-7.30907 -10.27218,-2.12952 -20.52,-4.29851 -30.80113,-6.39316 -5.22605,-1.01743 -10.35816,-2.4007 -15.53096,-3.61145 -8.51095,-2.11448 -17.00355,-4.33333 -25.4341,-6.70824 -3.53781,-0.98877 -7.03315,-2.02295 -10.53505,-3.11783 -3.04453,-0.97134 -6.06418,-2.07502 -9.0205,-3.27273 -2.16952,-0.81362 -4.34499,-1.86565 -5.77931,-3.81301 -1.64185,-1.95968 -2.25196,-4.6351 -2.85403,-7.19131 -0.97627,-3.64324 -1.30713,-7.50689 -1.37603,-11.37417 0.0112,-3.14465 0.20648,-6.30387 0.27095,-9.45365 0.2932,-10.01668 -3.49745,-45.5439 -2.99783,-55.5725 0.0834,-1.64993 0.28883,-2.25866 0.56414,-2.26216 z m 141.51386,120.38125 c -0.54585,-7.65032 -1.39624,-15.23949 -2.23614,-22.82806 -0.20542,-1.11612 -0.37432,-2.2444 -0.63599,-3.3422 0.93748,8.72797 1.89654,17.45093 2.87213,26.17026 z M 300.4859,796.02401 c -0.19058,0.008 -0.36275,0.0548 -0.55097,0.1246 -10.2883,3.47386 -20.56827,6.98668 -30.83997,10.53823 -1.69599,0.75435 -3.17473,2.38053 -3.58759,4.31106 -0.21666,6.2431 -0.69815,12.52818 -0.2543,18.70466 0.43886,4.27201 0.86857,8.54674 1.44096,12.78777 0.39576,1.2872 1.38019,2.27779 2.57293,2.68703 2.91419,0.70504 6.03029,0.40221 9.04063,-0.32901 2.23865,-0.47306 4.44604,-1.18634 6.67464,-1.74301 5.83122,-1.74028 11.69353,-3.35418 17.45227,-5.46444 1.22463,-0.46041 2.15766,-1.67134 2.27275,-3.04021 0.1892,-1.87949 9.1e-4,-3.74734 0.002,-5.61572 -0.10313,-5.36472 -0.15837,-9.69895 -0.43098,-15.03969 -0.0404,-0.17495 -0.0906,-0.27887 -0.16364,-0.33063 -0.0501,-3.80752 -0.61224,-9.68394 -0.87658,-13.42861 -0.094,-1.30564 -0.0293,-2.88933 -1.13309,-3.66083 -0.46207,-0.2901 -1.04715,-0.52527 -1.61891,-0.50124 z m 8.56157,-0.25499 -0.0333,0.0842 z m -10.78124,3.6429 c 1.16503,-0.29932 2.46547,0.12124 2.95383,1.28365 0.61289,1.12282 0.59784,2.51161 1.0612,3.71148 0.2456,2.45876 0.38466,6.99744 0.63154,9.70966 -0.85247,0.6443 -1.87328,0.75413 -2.85283,0.9153 -1.31487,0.21603 -2.55861,0.85024 -3.79476,1.41671 -2.00172,0.67044 -4.06855,1.18216 -5.90153,2.41447 -0.7737,0.24879 -1.61729,1.53493 -2.36112,1.11616 -0.50431,-1.21701 0.0259,-0.0345 -0.48912,-0.95262 0.13996,-2.37545 -0.46369,-4.65225 -0.61765,-6.98318 -0.20717,-2.00276 -0.40057,-3.99344 -0.60941,-5.99582 0.0785,-1.29571 0.8559,-2.74113 2.12173,-3.09597 3.09998,-1.23589 6.25859,-2.26064 9.38265,-3.3873 0.15947,-0.0715 0.30904,-0.10974 0.47547,-0.15254 z m -16.74305,5.55261 0.22291,0.005 c 1.42055,-0.11963 2.68554,1.05334 2.89918,2.51798 0.40561,2.13755 0.68972,4.32801 1.04004,6.48292 0.25078,1.40574 0.35743,2.85828 0.78622,4.18898 0.60252,0.7591 1.03043,2.8029 -0.45978,2.91828 -1.84264,0.32923 -3.68519,0.51532 -5.52603,0.89323 -3.11547,0.52257 -6.23535,1.15395 -9.34784,1.72101 -1.30784,-0.0601 -2.13373,-1.38197 -2.2026,-2.70469 -0.32081,-2.94333 -0.2449,-5.95285 -0.18828,-8.94757 -0.0125,-1.50368 0.64814,-3.22859 2.00655,-3.98771 1.25035,-0.66141 2.60991,-0.82217 3.91073,-1.316 2.27557,-0.63341 4.57615,-1.18653 6.8589,-1.77149 z m 18.91018,12.54068 0.22111,-0.0341 0.0368,-0.006 c 1.07079,-0.25514 2.10909,0.40875 2.47836,1.4362 0.42214,1.19461 0.21297,2.57814 0.3628,3.85892 0.12932,2.97593 0.42062,5.92449 0.74108,8.86229 0.0212,1.22458 -0.50551,2.7123 -1.66869,3.26325 -2.18217,0.86043 -4.4489,1.07738 -6.68005,1.62521 l -5.69768,1.19661 c -0.91097,1.04273 -1.32633,-0.83444 -0.88649,-1.52395 0.0305,-3.11761 -0.40002,-6.17147 -0.79415,-9.20997 0.14963,-1.92861 0.10976,-3.15114 -0.0976,-3.74173 0.30546,-0.25145 0.60009,-0.50774 0.86101,-0.6471 1.53183,-1.14718 3.08494,-2.30312 4.71221,-3.25891 2.08997,-0.86927 4.28983,-1.11398 6.41127,-1.82097 z m -13.36966,5.46645 c 0.0184,0.0394 0.0439,0.0506 0.0809,0.14567 0.0316,0.13115 0.0815,0.21291 0.12499,0.29704 -0.0142,0.0182 -0.0206,0.0261 -0.0351,0.0448 -0.051,-0.10651 -0.13306,-0.34327 -0.17085,-0.48769 z m -1.72484,0.42464 c 0.4345,-0.0885 0.85364,-0.13947 1.28982,-0.19927 l 0.22111,-0.0342 0.11056,-0.0171 c 0.63732,0.90114 0.40588,2.13842 0.26025,3.24206 -0.0114,2.15682 0.17199,4.30188 0.11152,6.46819 0.15253,1.87391 0.20549,3.76662 0.40711,5.63162 0,0 -0.0699,0.51026 -2.00162,0.86287 -2.19471,0.46969 -2.78697,0.48334 -3.98184,0.5757 -2.44788,0.1043 -4.90243,0.5263 -7.35343,0.70107 -1.25504,0.069 -2.71758,0.50045 -3.69526,-0.45729 -1.30529,-0.89812 -1.62838,-2.68748 -1.93946,-4.24806 -0.25258,-1.72767 -0.36528,-3.53614 -0.13292,-5.31808 0.29579,-1.23347 0.17917,-3.56837 1.3378,-4.00303 3.41452,-1.54138 7.91342,-1.46687 11.47445,-2.28683 1.30038,-0.29252 2.5884,-0.65216 3.8919,-0.91764 z"
         style="fill:#000000" />
      <path
         inkscape:connector-curvature="0"
         id="path3226"
         d="m 146.81801,693.80953 c 5.93392,0.4034 11.77514,1.33627 17.63628,2.13434 23.69128,3.51304 47.39031,6.99008 71.07999,10.51037 13.83051,2.1424 27.67935,4.20225 41.51413,6.32379 2.00068,0.29504 4.05624,0.69852 5.67603,1.95261 1.13081,0.90716 2.54024,1.81894 2.7582,3.48885 0.43545,2.1836 -0.34816,4.61181 -1.7838,6.39065 -2.38411,3.56613 -4.81278,7.10957 -7.529,10.40903 -3.88028,4.97951 -7.89371,9.83916 -11.94064,14.66638 -6.62421,8.03431 -13.53629,15.78954 -20.38236,23.60714 -4.31237,4.60336 -8.60162,9.26059 -13.31665,13.38459 -2.85021,2.41858 -5.94006,4.59599 -9.3246,5.88183 -2.89672,1.17112 -5.92425,1.9212 -8.93576,2.0228 -4.51614,0.23314 -8.91752,-0.51335 -13.27371,-1.28314 -9.80193,-1.75402 -19.54074,-3.76423 -29.28888,-5.73241 -14.50354,-2.99096 -28.99711,-6.02033 -43.48206,-9.08158 -11.06111,-2.39532 -22.14066,-4.72404 -33.20912,-7.09043 -1.209036,-0.3301 -2.478214,-0.49809 -3.621762,-1.01173 -0.941314,-0.56503 -1.183627,-2.09606 -0.4391,-3.09579 1.039578,-1.27007 2.009858,-2.63839 3.014941,-3.95385 6.01825,-7.90549 12.053031,-15.79749 18.173761,-23.61535 10.98316,-14.13473 22.00737,-28.23438 32.99203,-42.36748 0.87456,-1.09382 1.65511,-2.3164 2.67302,-3.25548 0.30576,-0.20008 0.66787,-0.305 1.00906,-0.28523 z"
         style="fill:#800000" />
      <path
         inkscape:connector-curvature="0"
         id="path3208"
         d="m 143.42082,808.1493 c -0.57138,0.0326 -1.13143,0.34235 -1.56481,0.67676 -1.02809,0.87699 -0.81827,2.45154 -0.79223,3.76056 0.0798,3.74256 0.0608,9.63326 0.35704,13.42978 -0.0679,0.0587 -0.10884,0.15877 -0.13298,0.33691 0.21812,5.34344 0.5615,9.68794 0.95052,15.03854 0.17218,1.8598 0.15528,3.72299 0.51587,5.57527 0.24004,1.35131 1.2802,2.47312 2.54148,2.81053 5.92603,1.53207 11.91003,2.56729 17.87429,3.72393 2.26952,0.33413 4.53265,0.83432 6.8045,1.08419 3.06371,0.43072 6.19346,0.42496 9.02982,-0.5646 1.14981,-0.52517 2.03903,-1.60767 2.31501,-2.9281 0.1811,-4.27831 0.21613,-8.59664 0.26146,-12.89261 -0.12425,-6.19228 -1.17979,-12.40525 -1.96766,-18.59865 -0.58792,-1.88101 -2.2089,-3.35147 -3.96633,-3.93493 -10.55063,-2.52124 -21.10596,-5.00365 -31.66598,-7.44591 -0.19377,-0.0509 -0.36954,-0.0826 -0.55998,-0.0712 z m 1.51864,3.16628 c 0.48783,-0.0952 0.99443,-0.0406 1.49032,0.1258 3.21316,0.81305 6.45037,1.49999 9.64957,2.42418 1.29262,0.22812 2.19898,1.59048 2.39588,2.87256 -0.0244,2.01392 -0.0349,4.00566 -0.0575,6.01977 0.0604,2.33559 -0.33263,4.64489 0.0244,6.99576 -0.42849,0.96471 -0.009,-0.25062 -0.39894,1.0107 -0.70207,0.49033 -1.66011,-0.71518 -2.45311,-0.88645 -1.93761,-1.04573 -4.04222,-1.35658 -6.09631,-1.82632 -1.28247,-0.44186 -2.57607,-0.89331 -3.90477,-0.97855 -0.98988,-0.0636 -2.01732,-0.0982 -2.92497,-0.65537 -0.002,-2.72335 -0.28036,-7.25323 -0.26122,-9.72733 0.35131,-1.24019 0.20773,-2.64948 0.71493,-3.82771 0.27115,-0.86097 1.00869,-1.3883 1.82175,-1.5469 z m -9.71769,4.98132 0.0405,0.0729 -0.0405,-0.0729 z m 27.15697,-1.03198 c 0.16815,-0.0402 0.3396,-0.0378 0.51773,-0.0405 l 0.22111,-0.0341 c 2.32601,0.3568 4.66546,0.64979 6.98876,1.05572 1.34019,0.36315 2.71003,0.4265 4.01533,0.96145 1.42183,0.62156 2.23651,2.24971 2.36185,3.74782 0.33086,2.97555 0.68191,5.95685 0.63232,8.91864 0.0527,1.32352 -0.6483,2.72153 -1.94469,2.91043 -3.15037,-0.25713 -6.31223,-0.5402 -9.46147,-0.75279 -1.86713,-0.19465 -3.71928,-0.21746 -5.58374,-0.36324 -1.49402,0.0323 -1.25512,-2.03877 -0.7249,-2.8539 0.30489,-1.36701 0.27765,-2.82926 0.39846,-4.25337 0.15124,-2.17974 0.23341,-4.38569 0.44127,-6.55361 0.0686,-1.29421 0.96087,-2.46078 2.13797,-2.74255 z m -17.97499,14.28471 c 0.24993,-0.0658 0.50517,-0.0781 0.7775,-0.041 l 0.0368,-0.006 0.22472,0.0444 c 2.17662,0.49431 4.38818,0.50431 6.54833,1.16331 1.7075,0.79077 3.35992,1.79743 4.98996,2.78816 0.27337,0.11332 0.58882,0.34955 0.91692,0.57015 -0.151,0.60977 -0.08,1.81798 0.24504,3.71895 -0.11387,3.06363 -0.26264,6.14485 0.0535,9.24532 0.50103,0.64294 0.26019,2.56543 -0.74222,1.61739 l -5.74557,-0.6546 c -2.27126,-0.32503 -4.58482,-0.31963 -6.83594,-0.9607 -1.20841,-0.43359 -1.86794,-1.83757 -1.95906,-3.05868 0.0497,-2.95613 0.0696,-5.91105 -0.0741,-8.88623 0.0317,-1.28977 -0.30503,-2.68498 0.006,-3.91584 0.20507,-0.79442 0.80859,-1.42728 1.55837,-1.62484 z m 14.8488,4.11229 c -0.0244,0.14749 -0.0829,0.42213 -0.12397,0.53323 -0.0135,-0.0145 -0.0254,-0.0196 -0.0386,-0.0336 0.0412,-0.0926 0.0727,-0.22207 0.0943,-0.37049 0.0256,-0.0894 0.054,-0.0876 0.0683,-0.12917 z m 0.11776,0.13997 0.11236,0.0213 0.22291,0.005 c 1.75871,0.065 3.49937,0.39383 5.26109,0.61071 3.62004,0.4646 8.09286,-0.0286 11.63316,1.16865 1.19322,0.31828 1.29101,2.65162 1.69851,3.8503 0.39458,1.75092 0.44713,3.53913 0.35403,5.2839 -0.16664,1.58423 -0.32562,3.36767 -1.54268,4.39061 -0.88547,1.04993 -2.38007,0.78328 -3.63574,0.83851 -2.45591,0.068 -4.93776,-0.10434 -7.3841,0.0335 -1.19791,0.026 -1.78831,0.0804 -4.01611,-0.17046 -1.9553,-0.16017 -2.07196,-0.66851 -2.07196,-0.66851 0.0297,-1.87647 -0.0906,-3.75741 -0.11049,-5.6379 -0.25875,-2.15052 -0.27271,-4.30461 -0.48184,-6.45053 -0.24613,-1.08424 -0.59099,-2.31625 -0.0391,-3.27622 z"
         style="fill:#000000" />
      <path
         inkscape:connector-curvature="0"
         id="path3959"
         d="m 173.50536,709.46279 c -2.27155,0.85559 -4.47192,1.93114 -6.69926,2.94825 -2.02375,0.89523 -4.0526,1.81433 -6.06926,2.73409 -0.23326,0.14168 -0.42214,0.34987 -0.55087,0.59441 -0.47374,-0.0479 -0.95558,-0.0696 -1.41386,0.0203 -1.40265,0.30026 -2.10071,1.50001 -2.27485,2.62395 -0.22171,1.60276 0.0219,3.25684 -0.0887,4.87875 -0.0908,4.83246 0.11228,9.6649 0.10457,14.50107 -0.11607,6.89891 -0.59025,13.77426 -0.89861,20.65768 -0.087,2.27477 -0.14201,4.63611 0.86605,6.85129 1.16471,2.07989 3.72287,3.69376 6.4486,3.87785 2.09156,0.27148 4.17517,0.57687 6.22759,1.04751 0.27428,0.003 1.13358,-0.25883 0.48576,0.16096 -0.55686,0.76555 1.24684,0.0501 1.71537,0.28673 1.71278,0.16087 3.75997,1.50498 5.25267,0.45125 0.037,-0.0185 0.074,-0.0372 0.11095,-0.056 1.05513,-0.53972 2.05253,-1.26652 3.06501,-1.92101 1.223,-0.68623 2.56559,-1.20309 3.50589,-2.38086 0.8965,-1.13084 1.83753,-2.25801 2.63662,-3.46404 1.34351,-2.04635 2.68283,-4.08849 3.9052,-6.20858 0.73385,-1.41311 1.3098,-2.87282 1.91881,-4.33502 0.78292,-2.0691 1.30896,-4.22869 1.63318,-6.37079 0.17172,-1.48456 0.3111,-2.96893 0.31728,-4.44294 5e-5,-1.42112 0.0901,-2.87031 0.0216,-4.27996 -0.13645,-2.02603 -0.18007,-4.04959 -0.37256,-6.06367 -0.36307,-4.38949 -0.79215,-8.78145 -1.24152,-13.14993 -0.16159,-1.07524 -0.20492,-2.25229 -0.85679,-3.08612 -0.65503,-1.03129 -1.79687,-1.49436 -2.81621,-2.04064 -1.51958,-0.73371 -3.16241,-1.24212 -4.78479,-1.73922 -2.5759,-0.77096 -5.1575,-1.49388 -7.80308,-2.0618 -0.7393,-0.11262 -1.57316,-0.25617 -2.34487,-0.0334 z"
         style="fill:#000000;fill-opacity:1" />
      <path
         sodipodi:nodetypes="ccccccccccc"
         inkscape:connector-curvature="0"
         id="path3943"
         d="m 178.97247,720.15665 c -1.71382,0.56 -2.26379,2.59895 -2.19693,4.04159 -0.749,11.81936 -0.25312,23.47727 0.25581,35.10383 0.0893,1.47278 -0.0155,3.01764 -0.77987,4.46207 -0.38736,0.63754 -0.81138,3.25006 0.18343,1.62559 1.67227,-1.44223 3.19098,-3.0691 4.829,-4.5579 2.58973,-2.55421 4.81185,-5.59097 5.76515,-8.95636 1.57689,-4.94339 1.10729,-9.88017 1.49938,-14.80033 0.27033,-5.4756 0.68357,-13.18295 0.57031,-18.60875 -0.34627,-1.34455 -1.09528,-1.9473 -2.50918,-1.48623 -2.21796,0.23705 -5.39761,2.74658 -7.61712,3.17649 z"
         style="fill:#d4aa00;fill-opacity:1" />
      <path
         style="fill:#d4aa00;fill-opacity:1"
         d="m 162.45796,720.02926 c -0.85963,0.21685 -1.27799,1.21213 -1.38249,2.16418 -0.13271,1.35832 0.0104,2.77338 -0.0541,4.15111 -0.0458,4.11149 0.10033,8.24573 0.10538,12.36266 -0.0571,5.87003 -0.34649,11.70364 -0.52156,17.55514 -0.0488,1.93416 -0.0663,3.9504 0.55646,5.86412 0.71854,1.80289 2.28247,3.23919 3.95452,3.47129 1.28329,0.28895 2.57445,0.60638 3.83412,1.06382 0.16823,0.01 0.67769,-0.20141 0.28123,0.13801 -0.33995,0.63635 0.77203,0.0806 1.05985,0.29492 1.075,0.18854 2.38248,1.48091 3.29957,0.50481 0.84182,-1.1423 0.0209,-2.75186 -0.0593,-4.12814 -0.46941,-3.39286 -0.27031,-6.75924 -0.31023,-10.12675 -0.0187,-5.65773 -0.26622,-11.33952 -0.40959,-17.00984 -0.11324,-3.61583 -0.23286,-7.23219 -0.34858,-10.84821 -0.16888,-1.39073 -0.93542,-2.80419 -2.12006,-3.37729 -2.13496,-1.06814 -4.40745,-1.32024 -6.61003,-1.9758 -0.42455,-0.0519 -0.86097,-0.1989 -1.27524,-0.10404 z"
         id="path3945"
         inkscape:connector-curvature="0" />
      <path
         sodipodi:nodetypes="cccccccccccc"
         inkscape:connector-curvature="0"
         id="path3947"
         d="m 173.79143,713.35763 c 0.7795,-0.23324 3.11033,-0.10684 3.90636,-0.007 0.71041,0.0892 5.34516,1.69788 6.07308,1.6254 0.45977,0.005 0.99872,-0.1473 1.40584,-0.0243 -0.62051,0.4169 -1.34436,0.59657 -2.01455,0.88546 -2.22508,0.83191 -6.40438,1.84845 -8.63629,2.65077 0.44235,-0.11618 -0.51848,0.19293 -0.66827,0.25031 -1.46435,0.49842 -0.96522,0.87587 -2.44861,1.27643 -0.15809,0.0177 0.44312,-0.35583 -0.0325,-0.31234 -0.8624,0.0222 -7.89035,-1.99591 -8.70527,-2.19255 1.07817,-0.55932 4.07806,-1.93343 5.19548,-2.36536 2.33511,-0.83812 3.58647,-0.96578 5.92478,-1.78644 z"
         style="fill:#d4aa00;fill-opacity:1" />
      <path
         inkscape:connector-curvature="0"
         id="path3952"
         d="m 172.49518,704.58189 c -1.12828,0.75614 -1.92136,1.95076 -2.64097,3.11161 -0.42712,1.2891 -0.48478,2.63009 -0.5345,3.9348 -0.0239,1.23239 -0.30412,2.53362 0.14447,3.65811 0.3752,1.21466 1.56166,1.8372 2.77567,1.77218 1.30546,-0.0315 2.59165,-0.74922 3.70177,-1.5869 0.75596,-0.74276 2.01725,-1.32129 2.16487,-2.4894 0.0825,-0.62472 -1.09715,-0.46554 -0.46119,-1.18491 0.23191,-0.35053 -0.49558,0.35427 -0.4848,-0.0827 -0.0313,-1.81312 -0.0702,-3.62505 -0.10434,-5.43775 -0.1753,-1.35286 -1.54682,-1.83248 -2.70284,-1.90105 -0.6102,-0.0819 -1.23779,0.069 -1.85813,0.20603 z m 5.40673,6.90154 c 0.1356,-5.7e-4 0.5152,-0.53648 0.12211,-0.11637 l -0.12211,0.11637 z m -1.03567,0.51169 c 0.14772,0.24233 -0.27264,-0.0221 0,0 z"
         style="fill:#000000;fill-opacity:1" />
    </g>
  </g>
</svg>
