<?xml version="1.0" encoding="UTF-8" standalone="no"?>
<!-- Created with Inkscape (http://www.inkscape.org/) -->

<svg
   xmlns:dc="http://purl.org/dc/elements/1.1/"
   xmlns:cc="http://creativecommons.org/ns#"
   xmlns:rdf="http://www.w3.org/1999/02/22-rdf-syntax-ns#"
   xmlns:svg="http://www.w3.org/2000/svg"
   xmlns="http://www.w3.org/2000/svg"
   xmlns:sodipodi="http://sodipodi.sourceforge.net/DTD/sodipodi-0.dtd"
   xmlns:inkscape="http://www.inkscape.org/namespaces/inkscape"
   width="210mm"
   height="297mm"
   viewBox="0 0 210 297"
   version="1.1"
   id="svg8"
   inkscape:version="0.92.3 (2405546, 2018-03-11)"
   sodipodi:docname="shed.svg"
   inkscape:export-filename="/home/crawford/Projects/HSAC/images/favicon.png"
   inkscape:export-xdpi="7.1441851"
   inkscape:export-ydpi="7.1441851">
  <defs
     id="defs2" />
  <sodipodi:namedview
     id="base"
     pagecolor="#ffffff"
     bordercolor="#666666"
     borderopacity="1.0"
     inkscape:pageopacity="0.0"
     inkscape:pageshadow="2"
     inkscape:zoom="0.7"
     inkscape:cx="442.55719"
     inkscape:cy="696.76123"
     inkscape:document-units="mm"
     inkscape:current-layer="layer1"
     showgrid="false"
     objecttolerance="5"
     inkscape:window-width="1861"
     inkscape:window-height="1028"
     inkscape:window-x="59"
     inkscape:window-y="24"
     inkscape:window-maximized="1" />
  <metadata
     id="metadata5">
    <rdf:RDF>
      <cc:Work
         rdf:about="">
        <dc:format>image/svg+xml</dc:format>
        <dc:type
           rdf:resource="http://purl.org/dc/dcmitype/StillImage" />
        <dc:title></dc:title>
      </cc:Work>
    </rdf:RDF>
  </metadata>
  <g
     inkscape:label="Layer 1"
     inkscape:groupmode="layer"
     id="layer1">
    <rect
       style="fill:#4c8300;fill-opacity:0.2360515;fill-rule:nonzero;stroke:none;stroke-width:0.60000002;stroke-linecap:round;stroke-miterlimit:4;stroke-dasharray:none;stroke-dashoffset:0;stroke-opacity:1"
       id="rect1272"
       width="227.54167"
       height="227.54167"
       x="-6.4255953"
       y="17.297619" />
    <path
       style="fill:#73706f;stroke-width:0.37364602"
       d="m 128.29211,42.571678 3.94366,2.55117 -3.68128,1.67451 -1.34426,-0.0383 0.22293,-3.36939 z"
       id="path950-8-6"
       inkscape:connector-curvature="0"
       sodipodi:nodetypes="cccccc" />
    <path
       style="fill:#73706f;stroke-width:0.37364602"
       d="m 117.68619,40.409108 -0.3977,-0.1449 -4.31982,0.98902 -0.40141,0.93244 -0.15295,0.4157 1.06005,1.51191 2.48405,1.55475 0.65647,-0.36167 z"
       id="path950-8"
       inkscape:connector-curvature="0"
       sodipodi:nodetypes="ccccccccc" />
    <path
       style="fill:#56692e;stroke-width:0.37364602"
       d="m 91.779552,240.37347 -77.962507,-0.19144 -1.879813,-0.45667 -1.879801,-0.45667 v -0.35079 -0.3508 l 1.08831,0.064 1.08831,0.064 1.187243,-0.0515 1.187243,-0.0515 -1.187243,-0.56632 -1.187243,-0.56632 -0.242119,-0.33163 -0.24212,-0.33163 -0.252575,0.0301 -0.252564,0.0301 h -0.39574 -0.395751 v -0.48598 -0.48597 l -0.5441547,-0.40257 -0.5441557,-0.40257 v -0.87534 -0.87535 h 0.3462795 0.3462799 v 0.46282 0.46282 l 1.08831,0.69176 1.08831,0.69176 0.890436,-0.12078 0.890434,-0.12079 v -0.30742 -0.30742 l -0.395751,-0.21803 -0.395751,-0.21803 v -0.33196 -0.33195 h 1.582993 1.582994 v -0.45862 -0.45861 l -0.43939,-0.39168 -0.439389,-0.39168 1.131948,-0.57895 1.13196,-0.57896 -1.656988,0.15798 -1.656976,0.15797 -0.239339,-0.21335 -0.239337,-0.21336 1.698439,-0.79248 1.69845,-0.79249 -2.252197,-0.0159 -2.252207,-0.0159 -0.284671,-0.44098 -0.28468,-0.44097 0.323842,0.26152 0.323855,0.26153 0.489434,-0.3621 0.489444,-0.36209 0.338472,0.0838 0.338461,0.0838 1.49741,-0.26604 1.4974,-0.26603 -1.398467,-1.45639 -1.398468,-1.4564 v -1.17122 -1.17122 h 0.395751 0.395751 v 0.44879 0.44878 l 1.216062,1.31511 1.216051,1.3151 h 0.804493 0.804494 l 1.175811,-0.88195 1.1758,-0.88194 h -1.613362 -1.613361 v -0.37219 -0.3722 l 2.077678,-0.80472 2.077688,-0.80472 0.791491,-0.28879 0.791503,-0.2888 -0.593626,-0.0983 -0.593628,-0.0983 -1.582993,-0.25295 -1.582995,-0.25294 1.38513,-0.28242 1.385118,-0.28241 1.286175,0.30704 1.286186,0.30705 v -0.39929 -0.39928 l -1.08831,-0.80898 -1.088311,-0.80899 1.684641,0.15904 1.68463,0.15904 0.4603,0.25359 0.4603,0.25359 -0.310022,-0.67523 -0.310035,-0.67523 -0.223037,-0.69886 -0.223038,-0.69886 1.045513,0.61067 1.045514,0.61066 h 0.187364 0.187376 l -0.07449,-0.97014 -0.07449,-0.97014 0.791491,0.0377 0.791503,0.0377 0.544155,0.13867 0.544155,0.13867 0.173993,-0.42123 0.174004,-0.42123 -1.608583,-0.38612 -1.608594,-0.38612 v -0.21519 -0.21518 l 3.395588,0.21361 3.395588,0.21361 -1.021091,-0.71599 -1.021103,-0.71598 v -0.36202 -0.36202 l 1.407745,0.7404 1.407734,0.7404 h 0.185424 0.185412 l -0.626979,-1.08079 -0.626978,-1.0808 0.122132,-1.12407 0.122131,-1.12406 1.285995,2.02284 1.286007,2.02285 1.360517,-0.57835 1.360516,-0.57833 -1.063529,-0.71114 -1.063518,-0.71113 -0.36148,-0.27949 -0.36148,-0.27949 1.107358,0.179 1.107348,0.179 1.114279,0.51365 1.114281,0.51365 h 0.183562 0.18355 l -1.153275,-2.12233 -1.153274,-2.12229 v -0.36797 -0.36798 l 0.404681,0.22295 0.404681,0.22295 1.376189,1.82163 1.376188,1.82163 v -2.32186 -2.32186 l 0.791491,-0.63852 0.791503,-0.63852 v 1.2453 1.2453 l 0.247336,1.10243 0.247348,1.10243 1.632465,-0.002 1.632466,-0.002 -1.187255,-0.7282 -1.187242,-0.72819 1.311045,0.23425 c 1.739386,0.36847 1.325797,0.30439 1.026623,-1.11718 l 2.36569,-0.26475 c 0.231418,6.12338 0.84803,2.4096 -1.673793,9.3222 18.322942,1.84426 50.905066,5.2676 73.495866,8.50526 16.70073,-5.24682 22.94298,-6.78144 37.38289,-10.13866 0,0 -1.11404,-4.1438 -0.84376,-7.1877 l 2.93801,-0.56312 1.13907,-0.83039 0.32348,-0.0127 0.32347,-0.0127 -0.27884,0.79375 -0.27886,0.79375 -0.20864,0.49378 c -0.45564,0.7623 0.23013,0.39561 0.84581,0.25786 l 1.05444,-0.23591 v 0.23241 0.23241 l -0.69256,0.46864 -0.69256,0.46865 1.4379,0.0112 1.4379,0.0112 0.23864,-0.79375 0.23862,-0.79375 0.005,-1.55399 0.005,-1.55398 0.7915,0.63852 0.79151,0.63852 v 2.06199 2.06199 h 0.39574 0.39575 v -0.30205 -0.30205 l 1.42396,-1.6624 1.42396,-1.66241 0.20547,0.18317 0.20547,0.18316 -1.21288,2.31046 -1.21289,2.31045 h 0.38766 0.38767 l 1.42074,-0.52916 1.42074,-0.52917 0.44636,0.009 0.44634,0.009 -1.33585,0.9877 -1.33586,0.9877 1.21303,0.4479 1.21304,0.4479 0.35817,-0.19732 0.35816,-0.19733 0.9519,-1.79518 0.95192,-1.79518 0.22077,0.98838 0.22079,0.9884 -0.70601,1.21376 -0.70601,1.21376 0.11648,0.10382 0.11647,0.10382 1.52901,-0.69509 1.52899,-0.69489 0.22487,0.20268 0.22488,0.20267 -1.15232,0.82088 -1.15231,0.82087 3.29088,-0.20107 3.29088,-0.20107 -0.28212,0.40691 -0.2821,0.40691 h -0.73579 -0.73577 l -0.62599,0.21413 -0.62599,0.21413 v 0.3303 0.33031 l 1.48406,-0.10347 1.48405,-0.10346 -0.0156,0.97014 -0.0157,0.97014 0.21348,-0.0112 0.21347,-0.0112 0.75087,-0.50664 0.75086,-0.50665 0.35895,0.19775 0.35895,0.19776 -0.64674,0.87989 -0.64676,0.87988 0.19561,0.17436 0.1956,0.17437 0.79938,-0.38136 0.79937,-0.38136 h 1.00297 1.00296 l -0.22201,0.51573 -0.22201,0.51574 -0.75495,0.21359 -0.75493,0.2136 v 0.33414 0.33414 l 2.16838,-0.15972 2.16837,-0.15973 0.20384,0.29401 0.20385,0.29401 -0.62371,0.21336 -0.62373,0.21335 h -0.957 -0.957 v 0.35278 0.35278 h 0.42132 0.42132 l 1.95317,0.74899 1.95317,0.749 v 0.48572 0.48573 l -0.29681,-0.0418 -0.29681,-0.0418 -0.95943,0.0418 -0.95943,0.0418 0.92948,0.88194 0.92946,0.88195 h 0.83218 0.8322 l 1.25263,-1.01988 1.25263,-1.01987 -0.24102,-0.21485 -0.24102,-0.21485 h 0.4617 0.46172 l -0.099,-0.39687 -0.099,-0.39688 0.49468,-0.16169 0.49469,-0.16169 v 0.75815 0.75814 l -0.46075,0.76745 -0.46076,0.76745 -1.16586,1.03927 -1.16586,1.03927 0.8959,0.29543 0.8959,0.29543 1.19499,0.0864 1.19499,0.0864 0.17309,0.46289 0.17309,0.46289 -0.7363,-0.0694 -0.73631,-0.0694 -1.35214,0.0406 -1.35213,0.0406 0.2968,0.26458 0.29681,0.26458 0.26384,0.0174 0.26383,0.0173 0.89043,0.27101 0.89044,0.27102 v 0.48322 0.48321 l -1.48407,-0.17961 -1.48404,-0.17961 0.85468,0.6735 0.85468,0.67351 -0.35395,0.49842 -0.35392,0.49843 -0.005,0.26458 -0.005,0.26459 h 1.51705 1.51702 l 0.25769,0.2297 0.25767,0.2297 -0.65878,0.42942 -0.6588,0.42941 0.84556,0.40339 0.84555,0.40339 1.30345,-0.70841 1.30345,-0.70841 0.26259,-0.001 0.26258,-0.001 -0.28841,0.97014 -0.28842,0.97014 -1.81755,0.77491 -1.81757,0.77491 -0.25765,0.37162 -0.25765,0.37161 0.71592,0.0374 0.71592,0.0374 1.04906,-0.0603 1.04906,-0.0603 0.26047,0.3757 0.26049,0.3757 -0.32018,0.045 -0.32016,0.045 -0.98936,0.13257 -0.98938,0.13258 -2.27555,0.0792 -2.27556,0.0792 v 0.44873 0.44873 l -13.35652,-0.086 -13.35652,-0.086 -77.962509,-0.19144 z"
       id="path1221"
       inkscape:connector-curvature="0"
       sodipodi:nodetypes="cccccccccccccccccccccccccccccccccccccccccccccccccccccccccccccccccccccccccccccccccccccccccccccccccccccccccccccccccccccccccccccccccccccccccccccccccccccccccccccccccccccccccccccccccccccccccccccccccccccccccccccccccccccccccccccccccccccccccccccccccccccccccccccccccccccccccccccccccccccccccccccccccccccccccccccccccccccccccccccccccccccccccccccccccccccccccccccccccccccccccccccccccccc" />
    <path
       style="fill:#ccaa85;stroke-width:0.37364602"
       d="m 86.233088,72.122508 2.774421,-0.13979 34.587331,48.055642 -2.64553,100.99306 -66.937249,-8.20527 0.419779,-95.9129 C 62.793054,105.01923 70.394972,93.957738 86.233088,72.122508 Z"
       id="path1095"
       inkscape:connector-curvature="0"
       sodipodi:nodetypes="ccccccc" />
    <path
       style="fill:#a3a19e;stroke-width:0.37364602"
       d="M 35.513342,118.26671 C 54.014562,96.470708 64.22227,71.626668 84.601329,51.345218 h 0.714423 c 12.211293,19.18908 28.246318,43.42123 43.963028,63.999112 -0.0235,0.73561 -0.0235,0.73561 -3.03403,3.84007 C 98.058193,89.004378 84.085421,57.934728 84.085421,57.934728 c 0,0 -32.004699,47.675842 -46.118025,63.306632 -1.706471,-1.59649 -2.454054,-2.97465 -2.454054,-2.97465 z"
       id="path988"
       inkscape:connector-curvature="0"
       sodipodi:nodetypes="cccccccc" />
    <path
       style="fill:#a3a19e;stroke-width:0.37364602"
       d="m 130.66396,116.63671 c 10.32192,-0.20571 34.51281,-6.11121 41.71329,-2.14427 0.35891,1.34311 0,0 -1.07949,2.28859 -14.64176,3.07259 -32.71611,2.59281 -43.26603,3.0443 0.27195,-1.43685 2.24815,-2.99898 2.63223,-3.18862 z"
       id="path986"
       inkscape:connector-curvature="0"
       sodipodi:nodetypes="ccccc" />
    <path
       style="fill:#927860;stroke-width:0.37364602"
       d="m 126.13277,122.44744 c 1.89896,-2.62211 32.17027,-3.15636 33.98726,-2.75215 -2.55768,18.43259 -5.43321,62.26458 -2.71777,91.90613 -1.60598,1.87706 -30.94718,8.74414 -33.24895,8.64864 -7.06046,-37.86012 -4.34869,-78.96982 1.97946,-97.80262 z"
       id="path1034"
       inkscape:connector-curvature="0"
       sodipodi:nodetypes="ccccc" />
    <path
       style="fill:#73706f;stroke-width:0.37364602"
       d="m 83.965488,60.969368 c 1.430474,1.6851 2.834247,4.25747 2.834247,6.38756 -12.384452,20.16483 -28.320245,35.581882 -35.087649,52.350702 -3.560651,0.60477 -7.601368,1.33025 -11.162031,1.935 14.352743,-19.12536 31.497092,-45.412822 43.415433,-60.673262 z"
       id="path950"
       inkscape:connector-curvature="0"
       sodipodi:nodetypes="ccccc" />
    <path
       style="fill:#73706f;stroke-width:0.37364602"
       d="m 89.30822,53.188798 c 15.66659,6.00224 35.29938,6.7798 49.27073,6.31165 9.01014,18.3865 23.07154,41.314982 33.40086,53.164932 -12.5783,1.09034 -28.71802,1.33298 -41.31585,1.48848 C 119.7743,103.06503 86.174822,57.603428 89.30822,53.188798 Z"
       id="path948"
       inkscape:connector-curvature="0"
       sodipodi:nodetypes="ccccc" />
    <path
       style="fill:#56692e;stroke-width:0.37364602"
       d="m 168.96071,231.9755 0.005,-1.76389 0.16539,0.97499 0.16539,0.97499 -0.17079,0.7889 -0.1708,0.7889 z"
       id="path1217"
       inkscape:connector-curvature="0" />
    <path
       style="fill:#56692e;stroke-width:0.37364602"
       d="m 171.75604,219.09911 v -2.99861 l 0.15149,1.49931 0.15149,1.4993 -0.15149,1.49931 -0.15149,1.49931 z"
       id="path1207"
       inkscape:connector-curvature="0" />
    <path
       style="fill:#56692e;stroke-width:0.37364602"
       d="m 169.35646,214.68939 0.005,-1.76389 0.16539,0.97499 0.16539,0.97499 -0.17079,0.7889 -0.1708,0.7889 z"
       id="path1199"
       inkscape:connector-curvature="0" />
    <path
       style="fill:#56692e;stroke-width:0.37364602"
       d="m 83.069467,148.17312 1.478251,-1.22517 H 84.34024 84.132761 l 0.747921,-0.71563 0.747909,-0.71562 1.095243,-1.92965 1.095232,-1.92965 0.43184,-2.67203 0.431828,-2.67204 -0.701185,-2.17922 -0.701186,-2.17921 -0.06024,-0.59146 -0.06024,-0.59146 -0.373292,0.20566 -0.373282,0.20565 0.219627,-0.74866 0.219629,-0.74866 -0.256233,0.074 -0.256221,0.074 -2.822973,-2.55551 -2.822972,-2.55552 h 0.215959 0.21596 l 1.912917,1.09423 1.912928,1.09423 -0.225763,0.32562 -0.225752,0.32562 0.524096,-0.0969 0.524109,-0.0969 -0.108703,0.4672 -0.108703,0.46719 0.362265,-0.19958 0.362254,-0.19958 0.706122,0.96711 0.706111,0.96711 0.522997,0.35278 0.522998,0.35277 0.8495,2.11667 0.849511,2.11667 0.01627,2.66438 0.01627,2.66439 -1.464238,2.62727 -1.464229,2.62728 -1.082095,1.06011 -1.082107,1.06011 -1.457654,0.96836 -1.457643,0.96836 -0.323226,-0.01 -0.323216,-0.01 1.478251,-1.22517 z"
       id="path1147"
       inkscape:connector-curvature="0" />
    <path
       inkscape:connector-curvature="0"
       id="path921"
       d="m 111.66803,223.28601 -9.89372,-1.19635 -13.851208,-1.58965 -13.851204,-1.58964 -10.685217,-1.22088 -10.685217,-1.22087 -1.305986,-0.20739 -1.305974,-0.20738 0.199165,-0.59807 0.199177,-0.59806 0.801992,-5.46806 0.801991,-5.46805 0.783728,-7.40834 0.783728,-7.40833 0.489187,-6.52639 0.489175,-6.52639 0.02131,-13.40555 0.02131,-13.40556 -0.513709,-6.35 -0.513709,-6.34999 -0.567152,-5.82084 -0.567153,-5.82083 -0.238978,-1.65311 -0.238968,-1.65311 -0.461029,0.14687 -0.461041,0.14688 -6.43029,1.1866 -6.430279,1.18661 -2.800336,-2.76458 -2.800345,-2.76458 6.623657,-8.55746 6.623656,-8.55746 3.036206,-3.880552 3.036206,-3.88056 3.173302,-4.23333 3.173302,-4.23333 2.37435,-3.35139 2.37435,-3.35139 5.456933,-7.9375 5.45692,-7.9375 3.644663,-5.29167 3.644652,-5.29166 1.440311,-2.00633 1.4403,-2.00633 5.247412,2.24184 5.247389,2.24184 4.212138,1.24945 4.212125,1.24946 3.90072,0.69485 3.90071,0.69485 3.12684,0.24787 3.12684,0.24788 -0.25426,-0.84019 -0.25428,-0.84019 -0.26137,-3.96531 -0.26136,-3.96531 -2.0176,-1.02191 -2.01757,-1.02192 -1.48407,-1.33338 -1.48405,-1.33338 v -1.36169 -1.3617 l 4.45216,-3.99402 4.45218,-3.99402 3.16598,-2.38013 3.166,-2.38014 1.71169,-0.89747 1.71169,-0.89748 0.54061,0.49004 0.54061,0.49004 1.24079,2.23948 1.24078,2.23947 1.92423,5.16886 1.92423,5.16886 0.49585,2.19055 0.49584,2.19055 -0.7095,0.69885 -0.70949,0.69886 -1.83299,0.55675 -1.833,0.55674 -2.08449,0.21839 -2.08448,0.21839 v 1.91026 1.91026 l 0.60452,2.36926 0.60452,2.36926 4.04552,-0.24823 4.04553,-0.24823 1.583,-0.35173 1.58299,-0.35174 0.79151,-0.21642 0.79149,-0.21641 0.92126,3.80843 0.92125,3.80843 1.7747,4.7625 1.77468,4.7625 2.90784,5.36084 2.90783,5.36084 2.27731,3.4586 2.27732,3.4586 3.1671,4.23334 3.16711,4.23333 2.38538,2.822222 2.38539,2.82223 3.63547,3.88056 3.63546,3.88055 0.81538,0.65332 0.81539,0.65332 -1.4336,2.58265 -1.43359,2.58265 -2.20388,0.19656 -2.20389,0.19656 -3.03808,0.22247 -3.03809,0.22247 -0.42103,1.63667 -0.42103,1.63666 -0.77708,3.94085 -0.77708,3.94084 -0.79085,5.055 -0.79084,5.05499 -0.60845,5.29165 -0.60846,5.29167 -0.39393,6.17361 -0.39393,6.17361 -0.003,7.9375 -0.003,7.9375 0.40114,6.70278 0.40112,6.70278 0.57412,5.29166 0.57414,5.29167 0.81799,5.42581 0.81799,5.42581 -0.20195,0.18002 -0.20195,0.18002 -11.98173,3.13251 -11.98175,3.1325 -4.15536,1.07991 -4.15537,1.07991 -2.35239,0.67689 -2.3524,0.6769 -1.01146,-0.0384 -1.01147,-0.0384 -9.89372,-1.19634 z m 9.09081,-3.22482 -0.18948,-0.97014 -0.57758,-5.82083 -0.57756,-5.82083 -0.49984,-6.52639 -0.49985,-6.52639 -0.009,-16.93333 -0.009,-16.93334 0.51183,-5.82083 0.51181,-5.82083 0.59746,-5.46806 0.59746,-5.46804 0.76411,-5.11529 0.7641,-5.11528 0.72574,-3.84163 0.72575,-3.84162 -6.80694,-9.05792 -6.80695,-9.05792 -0.24092,1.78705 -0.24092,1.78704 -0.003,2.74874 -0.003,2.74874 2.89941,-0.23421 2.8994,-0.23421 -0.13112,1.89519 -0.13111,1.8952 -0.78669,16.22777 -0.7867,16.22778 -0.42005,8.46667 -0.42006,8.46666 -0.31616,12.87639 -0.31618,12.87639 0.35286,12.52361 0.35285,12.52361 0.28159,2.82222 0.28158,2.82222 3.16599,0.39142 3.166,0.39142 0.68267,0.0496 0.68265,0.0496 -0.18949,-0.97014 z m 9.81812,-2.06757 -0.087,-0.66646 -0.5995,-5.82083 -0.59952,-5.82083 -0.4178,-5.99723 -0.41779,-5.99722 -0.23534,-13.05277 -0.23535,-13.05278 0.46515,-8.46667 0.46515,-8.46666 0.58958,-5.11528 0.58956,-5.11527 0.7955,-4.93889 0.7955,-4.9389 0.9735,-4.22935 0.97349,-4.22936 v -0.25139 -0.25138 l -3.46279,0.20413 -3.46281,0.20413 -0.28683,0.22842 -0.28684,0.22841 -1.37153,9.33986 -1.37153,9.33988 -0.80661,7.23193 -0.80662,7.23194 -0.4042,5.63843 -0.40418,5.63842 0.002,6.53241 0.002,6.53241 0.39478,7.76111 0.39477,7.76111 0.41012,5.46806 0.41012,5.46805 0.57813,5.82083 0.57812,5.82084 0.20735,1.10867 0.20734,1.10867 3.25495,-0.795 3.25498,-0.79498 -0.087,-0.66646 z m -20.42587,-1.6366 -0.35534,-3.26319 -0.012,-19.57917 -0.012,-19.57916 0.45752,-10.58334 0.45752,-10.58333 0.6013,-11.81804 0.6013,-11.81807 0.57736,-7.73575 0.57734,-7.73575 -0.15973,-0.14238 -0.15972,-0.14239 -3.5445,0.24718 -3.54451,0.24717 -0.24719,3.57402 -0.24719,3.57401 -0.39817,8.11389 -0.39813,8.1139 -0.39447,10.05416 -0.39444,10.05416 -0.003,14.46389 -0.003,14.46389 0.42679,12.34722 0.42681,12.34722 0.26836,4.05695 0.26838,4.05694 1.58299,0.21452 1.583,0.21453 1.20007,0.0501 1.20008,0.0501 -0.35536,-3.2632 z m -7.20366,-2.11666 -0.20599,-4.67431 -0.38469,-16.40416 -0.38469,-16.40417 0.004,-11.46528 0.004,-11.46527 0.38066,-9.525 0.38063,-9.52499 0.41344,-9.17224 0.41344,-9.17222 0.19829,-1.33452 0.1983,-1.33453 -4.458931,0.0998 -4.459228,0.0998 -0.105786,9.14451 -0.105787,9.14451 0.654552,1.52782 0.654552,1.52783 -0.199906,2.22 -0.199906,2.22 -0.598193,1.04239 -0.598192,1.04239 -0.344316,13.75832 -0.344328,13.75834 0.0949,22.40138 0.0949,22.40139 0.223991,1.80645 0.223991,1.80646 4.034343,0.53022 4.034334,0.53023 0.29382,0.0446 0.29379,0.0446 z m 33.95449,2.84224 3.16715,-0.77373 -0.26343,-3.01863 -0.26341,-3.01863 -0.5651,-8.53716 -0.5651,-8.53715 -0.26271,-12.98229 -0.26273,-12.98229 0.45172,-8.99583 0.45171,-8.99584 0.60882,-5.82083 0.60882,-5.82082 0.77501,-4.72588 0.775,-4.72586 0.7862,-3.35603 0.78619,-3.35602 v -0.24948 -0.24948 l -2.86918,0.14907 -2.86919,0.14906 -0.87624,0.16016 -0.87625,0.16016 -0.45305,1.49575 -0.45304,1.49576 -0.95497,4.58611 -0.95498,4.58611 -0.76757,5.64446 -0.76757,5.64443 -0.5099,5.11528 -0.50991,5.11528 0.0191,17.63888 0.0191,17.63889 0.67192,8.46667 0.67191,8.46667 0.46514,5.20347 0.46512,5.20347 h 0.5772 0.57718 l 3.16717,-0.77373 z m -44.435833,-30.18252 -0.0045,-30.60347 0.268561,-6.16505 0.26855,-6.16504 -2.284056,1.8147 -2.284057,1.8147 -1.73814,0.82196 -1.73814,0.82196 -0.0067,10.40755 -0.0067,10.40755 -0.19082,4.05695 -0.190831,4.05694 -0.397983,16.22778 -0.397985,16.22777 -0.228052,2.86997 -0.228063,2.86996 3.494554,0.41875 3.494542,0.41876 0.395752,0.12301 0.395751,0.12302 0.690394,0.0278 0.690405,0.0278 -0.0045,-30.60347 z m -10.113522,23.10694 0.2529,-6.08541 0.3821,-16.40417 0.382109,-16.40416 0.0011,-10.49514 0.0011,-10.49514 h -0.336687 -0.336701 l -1.276279,0.39661 -1.276293,0.3966 -0.391948,-0.3494 -0.391959,-0.34939 2.042003,-2.07568 2.042015,-2.07569 -0.274091,-8.81943 -0.274091,-8.81945 -2.213786,-2.01925 -2.213787,-2.01925 0.284311,-0.25343 0.284301,-0.25343 2.004434,0.36602 2.004423,0.36601 -0.13474,-5.03185 -0.134741,-5.03186 -0.197876,-0.14845 -0.197875,-0.14845 -4.469304,0.2078 -4.469303,0.2078 0.116062,16.05139 0.116074,16.05139 -0.07584,23.45972 -0.07572,23.45972 -0.402684,10.5684 -0.402684,10.5684 0.160071,0.14268 0.160059,0.14269 3.48439,0.45096 3.484379,0.45096 1.045772,0.0386 1.045772,0.0387 z m 63.420795,4.8214 3.35139,-0.91124 -0.2179,-1.29362 -0.21789,-1.29362 -0.39807,-4.05694 -0.39806,-4.05695 -0.48422,-6.52639 -0.48422,-6.52639 -0.0174,-18.34444 -0.0174,-18.34444 0.51245,-4.93889 0.51246,-4.93889 0.78497,-5.82082 0.78496,-5.82085 1.21574,-5.29166 1.21573,-5.29167 0.0593,-0.50914 0.0593,-0.50915 -1.97874,0.0765 -1.97875,0.0764 -1.47789,0.19819 -1.47789,0.19819 -0.38479,1.29284 -0.38479,1.29284 -0.81617,4.05694 -0.81615,4.05695 -0.79079,5.64445 -0.79079,5.64443 -0.56683,6.70278 -0.56683,6.70278 -0.26206,8.81944 -0.26206,8.81945 0.45099,10.75491 0.451,10.7549 0.58096,7.76593 0.58097,7.76592 0.25064,2.38125 0.25065,2.38125 h 0.18844 0.18844 l 3.3514,-0.91124 z m -73.662651,-35.95403 0.291412,-27.16389 -0.301352,-18.65976 -0.301362,-18.65976 -4.153818,0.20969 -4.15384,0.20968 -0.130881,0.11667 -0.130882,0.11668 0.368683,6.69173 0.368682,6.69174 0.40209,11.81806 0.402089,11.81805 1.35e-4,3.21951 1.34e-4,3.21951 2.140162,0.1582 2.140162,0.15821 1.025825,0.59917 1.025837,0.59916 -0.0056,1.49117 -0.0056,1.49118 -0.290751,0.39776 -0.290761,0.39778 -1.689768,0.25178 -1.689778,0.25178 -0.598754,0.53374 -0.598742,0.53373 0.111956,3.7556 0.111957,3.7556 2.468213,1.05834 2.468222,1.05833 0.0056,1.27972 0.0056,1.27972 -0.533531,0.39471 -0.533532,0.39471 -2.57024,0.0895 -2.570252,0.0895 -0.259362,10.23055 -0.259351,10.23056 -7.97e-4,7.48054 -7.84e-4,7.48054 1.286185,0.19872 1.286175,0.19873 2.176621,0.2643 2.176621,0.26429 0.258812,-4.41578 0.258823,-4.41579 0.291413,-27.16388 z m -10.361554,30.77986 0.238251,-3.96875 0.253831,-13.79207 0.25382,-13.79206 -0.662685,-0.22669 -0.662686,-0.22668 -0.858654,-1.67986 -0.858654,-1.67986 -0.01155,-5.11528 -0.01155,-5.11528 0.545199,-1.67277 0.545198,-1.67276 0.996569,-0.95856 0.996557,-0.95855 -0.472639,-12.53812 -0.472651,-12.53813 -0.563462,-10.56856 -0.56345,-10.56855 0.4043,-0.22274 0.40431,-0.22275 -0.118463,-2.28878 -0.118474,-2.28879 -3.29016,4.6773 -3.290172,4.67729 0.615827,4.87501 0.615828,4.87502 0.396054,3.88055 0.396043,3.88057 0.575364,7.05555 0.575374,7.05555 0.266834,8.11389 0.266833,8.11389 -0.454871,8.46666 -0.45487,8.46667 -0.585595,6.87916 -0.585584,6.87917 -0.790594,7.23195 -0.790593,7.23194 -0.232921,1.45366 -0.232909,1.45366 3.10431,0.34851 3.104311,0.34851 0.645106,0.0499 0.645107,0.0499 0.238249,-3.96875 z m 95.416405,2.15816 0.2367,-0.21099 -0.58659,-4.0163 -0.5866,-4.01629 -0.61184,-6.17361 -0.61184,-6.17361 -0.39499,-7.58472 -0.39498,-7.58473 -0.002,-6.52638 -0.002,-6.52639 0.40464,-6.52639 0.40465,-6.52639 0.59073,-5.46806 0.59074,-5.46804 0.81361,-4.93889 0.81358,-4.9389 0.76034,-3.52778 0.76033,-3.52777 0.38524,-1.19094 0.38524,-1.19094 -2.85584,0.24669 -2.85584,0.24668 -0.25509,0.2387 -0.25508,0.2387 -1.03307,4.05694 -1.03307,4.05694 -0.77889,4.23334 -0.77888,4.23334 -0.59098,4.58611 -0.59097,4.5861 -0.44104,5.46806 -0.44102,5.46805 -0.006,11.1125 -0.006,11.1125 0.44348,7.23195 0.4435,7.23194 0.79579,8.64306 0.79581,8.64305 0.21755,1.09505 0.21754,1.09504 2.90871,-0.74831 2.90871,-0.74832 0.2367,-0.21099 z m -87.397129,-34.66151 0.04981,-0.0404 0.244509,-0.71175 0.24451,-0.71175 -1.933918,-0.61228 -1.933918,-0.61229 -0.870219,-0.62815 -0.870231,-0.62815 -0.34204,-2.63393 -0.342039,-2.63392 0.224855,-1.63053 0.224866,-1.63052 0.274663,-0.39615 0.274653,-0.39616 2.145378,-0.65005 2.145367,-0.65005 0.257332,-1.1216 0.257332,-1.12159 -0.374011,-0.20605 -0.374,-0.20605 -2.273915,-0.18381 -2.273903,-0.1838 -1.22663,0.56544 -1.22664,0.56545 -0.608659,1.68245 -0.608659,1.68246 -0.260843,2.83458 -0.260843,2.83458 0.455072,2.61454 0.455073,2.61454 0.482153,0.90088 0.482142,0.90088 1.777773,0.41256 1.777762,0.41256 1.978745,-0.19577 1.978734,-0.19577 z m 13.92678,-28.70182 1.457655,-0.96836 1.082096,-1.06011 1.082095,-1.06011 1.464239,-2.62728 1.464228,-2.62727 -0.01627,-2.66439 -0.01627,-2.66438 -0.8495,-2.11668 -0.849512,-2.11667 -0.522997,-0.35277 -0.522998,-0.35278 -0.70611,-0.96711 -0.706112,-0.96711 -0.362264,0.19958 -0.362266,0.19958 0.108703,-0.46719 0.108703,-0.4672 -0.524108,0.0969 -0.524097,0.0969 0.225764,-0.32562 0.225752,-0.32562 -1.912917,-1.09423 -1.912918,-1.09423 H 80.91014 80.694181 l 2.822972,2.55552 2.822973,2.55551 0.256232,-0.074 0.256221,-0.074 -0.219628,0.74866 -0.219627,0.74866 0.373281,-0.20565 0.373293,-0.20566 0.06024,0.59146 0.06024,0.59146 0.701186,2.17922 0.701197,2.17922 -0.431839,2.67204 -0.43184,2.67203 -1.095232,1.92965 -1.095232,1.92965 -0.74792,0.71562 -0.747921,0.71563 h 0.207479 0.207478 l -1.478251,1.22517 -1.478239,1.22518 0.323214,0.01 0.323216,0.01 1.457654,-0.96836 z m 3.248104,-9.16256 0.481705,-2.18258 -0.255459,-1.51858 -0.255469,-1.51858 -0.987998,-1.90094 -0.987987,-1.90094 -0.213233,0.19008 -0.213233,0.19008 0.282897,6.61457 0.282898,6.61455 0.692087,-1.20254 0.692088,-1.20253 z m 6.471832,-17.12116 0.258969,-8.02569 h -4.755309 -4.755319 v 3.29964 3.29964 l 0.253719,2.16384 0.253719,2.16385 2.84911,1.3939 2.849112,1.3939 1.349344,1.16831 1.349343,1.16831 h 0.0442 0.0442 z m -46.353099,-1.6861 4.650038,-0.77163 v -0.9907 -0.99069 l -0.470924,-0.13993 -0.470913,-0.13993 3.340093,-4.64187 3.340103,-4.64187 5.522468,-7.68302 5.522468,-7.683012 7.194197,-9.90571 7.194196,-9.90571 1.957981,-2.81413 1.95798,-2.81413 -1.417134,-3.19378 -1.417113,-3.19378 -1.945617,3.03723 -1.945607,3.03723 -4.2219,6.35 -4.22189,6.35 -4.463593,6.35 -4.463606,6.35 -9.656193,12.876392 -9.656194,12.87639 -1.42041,1.72301 -1.420423,1.72301 0.930977,-0.19587 0.930966,-0.19587 z m -1.291168,-9.16181 7.202274,-9.34862 5.642906,-7.584722 5.642893,-7.58472 5.077784,-7.40834 5.077772,-7.40833 4.994467,-7.61458 4.994455,-7.61458 1.31293,3.02847 1.31293,3.02847 3.483751,6.35 3.48374,6.35 3.308804,5.11528 3.308794,5.11527 3.93441,5.46806 3.93442,5.46805 2.41076,3.175 2.41077,3.175002 1.92017,2.46945 1.92018,2.46945 4.54983,5.60917 4.54983,5.60917 1.50524,-1.55223 1.50524,-1.55223 0.0118,-0.3678 0.0118,-0.36781 -2.8406,-2.98358 -2.84061,-2.98358 -3.94176,-4.72888 -3.94177,-4.728872 -3.6277,-4.97252 -3.62768,-4.97251 -2.40223,-3.70417 -2.40224,-3.70417 -4.343957,-7.40833 -4.343983,-7.40833 -3.275274,-5.82084 -3.275286,-5.82083 -1.549967,-2.38125 -1.549968,-2.38125 H 84.95863 84.601402 l -1.818787,2.38125 -1.818786,2.38125 -1.522495,2.11667 -1.522506,2.11667 -7.107067,10.40694 -7.107076,10.40694 -2.271638,3.30378 -2.271649,3.30378 -3.773704,5.16288 -3.773716,5.1629 -4.975105,6.350002 -4.975115,6.35 -2.817521,3.35139 -2.817531,3.35139 -0.257647,0.38782 -0.257645,0.38783 1.227022,1.48733 1.227033,1.48732 0.300589,-0.28765 0.300599,-0.28765 7.202274,-9.34861 z m 107.18873,6.74994 18.33815,-1.28636 0.53974,-1.14429 0.53975,-1.1443 -1.0692,0.004 -1.06921,0.004 -18.99595,1.05223 -18.99593,1.05224 -0.79149,0.0159 -0.79151,0.0159 -1.31611,1.59431 -1.31612,1.59431 3.29487,-0.23575 3.29485,-0.23575 18.33816,-1.28636 z m -1.32096,-4.63638 13.05972,-0.35039 3.64072,-0.20762 3.64072,-0.20762 -2.06601,-2.17327 -2.06601,-2.17327 -4.37419,-5.46806 -4.37421,-5.468062 -2.67821,-3.65855 -2.6782,-3.65855 -2.71375,-4.22243 -2.71375,-4.22242 -2.93984,-6.23014 -2.93985,-6.23013 -1.92842,-4.83003 -1.92842,-4.83002 -6.53584,0.2078 -6.53584,0.20781 -6.52388,-0.43634 -6.52387,-0.43634 -4.5511,-0.67882 -4.55111,-0.67882 -3.492732,-0.89115 -3.492741,-0.89116 -3.531807,-1.35731 -3.53181,-1.35732 v 0.10266 0.10265 l 1.426334,2.23875 1.426334,2.23875 3.967261,7.05481 3.967261,7.05481 2.97573,4.93964 2.97574,4.93963 3.56162,5.29166 3.56165,5.29167 4.3506,5.82083 4.3506,5.820842 3.698,4.23334 3.698,4.23333 0.6983,0.80084 0.69831,0.80085 3.95749,-0.18624 3.9575,-0.18623 z m -22.64447,-5.43577 -1.13689,-0.85277 -1.02531,-1.70487 -1.02529,-1.70488 -0.26934,-0.79375 -0.26933,-0.79375 h 0.33708 0.3371 l 0.64692,0.97622 0.64689,0.97621 1.64869,1.66962 1.64866,1.66962 3.23129,-0.004 3.23131,-0.004 1.48404,-0.21867 1.48407,-0.21866 -0.002,-0.57121 -0.002,-0.5712 -0.97498,-1.41111 -0.975,-1.41111 -0.0123,-0.26458 -0.0124,-0.26459 h 0.4112 0.41122 l 1.36686,2.54249 1.36688,2.54249 -0.34456,0.30716 -0.34457,0.30715 -1.53245,0.31694 -1.53245,0.31694 -3.82818,0.008 -3.82819,0.008 -1.1369,-0.85276 z m 16.1065,-6.93861 -0.99748,-0.32734 -1.29797,-1.767382 -1.29795,-1.76738 -0.55618,-1.40521 -0.55618,-1.40521 h 0.33695 0.33692 l 1.26275,1.75414 1.26274,1.75414 1.41112,1.10445 1.41113,1.104452 4.45972,-0.126202 4.45972,-0.1262 0.30604,-0.2728 0.30604,-0.27281 -1.08522,-1.97244 -1.0852,-1.97244 0.17158,-0.15295 0.17158,-0.15294 0.81261,0.92089 0.81262,0.9209 0.66568,1.55383 0.66569,1.553822 -0.2115,0.49133 -0.21152,0.49133 -1.51849,0.22364 -1.51848,0.22365 -3.75962,-0.0239 -3.75961,-0.024 -0.99749,-0.32734 z m -10.41092,-7.343542 -1.51468,-0.28512 -0.73815,-0.66846 -0.73815,-0.66846 -1.40785,-2.09591 -1.40783,-2.09591 v -0.46173 -0.46172 l 0.29681,0.003 0.29682,0.003 2.16349,2.47363 2.16351,2.47365 1.5961,0.38873 1.59613,0.38873 4.29487,-0.19673 4.29489,-0.19673 0.23963,-0.21361 0.23963,-0.21361 -1.29638,-2.10206 -1.29637,-2.10206 h 0.41692 0.41692 l 0.97756,1.32291 0.97756,1.32292 0.61063,1.3107 0.61064,1.3107 -0.84777,0.40445 -0.84776,0.40445 -4.79124,0.12037 -4.79124,0.12038 -1.51469,-0.28513 z m -19.26211,-14.90247 -0.98938,-1.13684 -0.87809,-1.25803 -0.87809,-1.25803 -0.008,-0.52917 -0.008,-0.52916 2.35286,2.25883 2.35287,2.25884 4.35386,-0.23572 4.35385,-0.23572 0.61032,-0.20878 0.61033,-0.20877 v -0.33208 -0.33207 l -0.78877,-1.4553 -0.78875,-1.4553 0.19271,-0.1718 0.19272,-0.17179 0.7659,0.61788 0.76591,0.61787 0.62164,1.16777 0.62164,1.16777 v 0.6838 0.68382 l -1.08831,0.45046 -1.08831,0.45046 -5.14473,0.14895 -5.14474,0.14894 -0.98937,-1.13683 z m -11.3767,-6.7397 -1.24249,-1.14653 -0.80519,-1.5875 -0.8052,-1.5875 -0.009,-0.64676 -0.009,-0.64676 0.41291,0.12269 0.41293,0.1227 1.49559,2.46434 1.49559,2.46434 4.96133,0.0984 4.96132,0.0984 1.08815,-0.36879 1.08815,-0.36879 -0.44085,-0.47353 -0.44087,-0.47352 -0.7894,-2.0453 -0.7894,-2.0453 0.0326,-1.0913 0.0326,-1.0913 1.72031,3.23744 1.72031,3.23745 0.91839,0.44279 0.9184,0.44279 4.35324,-0.0112 4.35322,-0.0112 0.91815,-0.26103 0.91813,-0.26103 -0.27168,-2.26145 -0.27167,-2.26144 h 0.42659 0.4266 l 0.37914,1.32291 0.37914,1.32292 0.25948,1.4727 0.25949,1.47271 -0.8175,0.39 -0.81749,0.39 -5.64317,-0.0397 -5.64317,-0.0397 -0.98938,-0.0265 -0.98936,-0.0264 -2.57238,0.40559 -2.57236,0.40558 -3.38516,0.003 -3.38518,0.003 -1.24248,-1.14652 z m -35.969045,40.071892 1.529226,-0.22519 -0.282493,-5.32718 -0.282483,-5.32716 -0.257365,-2.116672 -0.257376,-2.11667 -0.967211,1.41111 -0.967224,1.41111 -1.901956,2.583542 -1.901969,2.58353 v 3.67828 3.67827 l 1.879813,-0.004 1.879802,-0.004 1.529236,-0.2252 z m 10.440786,-7.52815 0.0976,-7.231942 -0.295427,-6.86777 -0.29544,-6.86777 -3.725321,5.27505 -3.72532,5.27504 -0.347941,3.42504 -0.347928,3.425042 0.610454,5.18065 0.610455,5.18067 v 0.3204 0.32041 l 3.660682,-0.10143 3.660671,-0.10144 z m 9.35518,-7.408332 -0.04521,-14.2875 -0.640238,-5.25595 -0.640249,-5.25595 -0.159532,-0.14221 -0.159533,-0.14221 -3.161051,4.51622 -3.161052,4.51621 0.104665,13.58195 0.104664,13.581952 0.04286,1.68846 0.04285,1.68847 3.858547,-0.10097 3.858559,-0.10097 z m 9.578819,0.79375 -0.06207,-13.31736 -2.801767,-4.23333 -2.80177,-4.23334 -1.267362,-2.24055 -1.267351,-2.24056 -0.124441,0.12389 -0.124443,0.12389 0.324516,18.87361 0.324517,18.873622 0.02367,0.79375 0.02367,0.79375 h 3.907379 3.907378 z m 7.58255,12.968472 2.86918,-0.004 v -5.8827 -5.882702 l -4.19448,-5.75897 -4.194487,-5.75897 h -0.158761 -0.158751 v 11.86421 11.864222 l 1.484069,-0.21866 1.48405,-0.21867 z m 20.42591,-55.654582 -0.30892,-2.02847 0.0424,-3.70417 0.0424,-3.70416 0.62949,-1.76389 0.6295,-1.76389 0.004,-0.22628 0.004,-0.22628 -1.54401,-0.55071 -1.54401,-0.55071 -1.98975,-0.23529 -1.98973,-0.23529 -0.42853,1.4186 -0.42851,1.41859 -0.39266,2.7607 -0.39265,2.7607 0.22231,1.77187 0.22231,1.77188 0.40546,2.36381 0.40547,2.36382 2.04522,0.12856 2.04522,0.12857 1.31467,0.0653 1.31467,0.0653 z m 4.79748,-9.37753 1.97314,-0.81359 -1.97182,-1.27558 -1.97184,-1.27559 -0.26052,0.41802 -0.26053,0.41802 -0.28041,1.6757 -0.28042,1.67569 0.53963,-0.005 0.53961,-0.005 1.97316,-0.81359 z m -13.64775,-1.23794 v -0.60785 l 0.53566,-1.84077 0.53565,-1.84077 h -0.30759 -0.30759 l -2.05118,0.42206 -2.05116,0.42206 -0.20071,0.46622 -0.2007,0.46622 0.45355,0.96381 0.45355,0.9638 1.24202,0.77737 1.24203,0.77738 0.32824,-0.18083 0.32823,-0.18084 z m 15.09745,-5.98134 -1.57542,-4.2003 -1.44765,-2.7194 -1.44766,-2.71939 -0.5665,-0.19378 -0.5665,-0.19379 -2.70594,1.97344 -2.70597,1.97344 -3.46513,3.20424 -3.46514,3.20424 0.14915,0.13296 0.14917,0.13297 1.57188,-0.32487 1.57189,-0.32487 2.02367,-0.008 2.02366,-0.008 2.1317,0.35236 2.1317,0.35235 2.7783,1.21438 2.77832,1.21439 0.97346,0.92369 0.97345,0.92368 0.13248,-0.3543 0.13249,-0.3543 -1.57541,-4.20031 z"
       style="fill:#0b0908;stroke-width:0.37364602" />
  </g>
</svg>
